<?xml version="1.0" encoding="UTF-8"?><svg xmlns="http://www.w3.org/2000/svg" xmlns:xlink="http://www.w3.org/1999/xlink" height="1001.6" preserveAspectRatio="xMidYMid meet" version="1.0" viewBox="0.0 -1.6 1000.0 1001.6" width="1000.0" zoomAndPan="magnify"><g><g id="change1_1"><path d="M 1000 993.898438 C 998.515625 993.769531 997.648438 993.992188 995.960938 995.84375 C 994.941406 996.964844 994.238281 998.574219 993.5 1000 L 1000 1000 L 1000 993.898438" fill="#7f7e7c"/></g><g id="change1_2"><path d="M 987.027344 981.773438 C 982.203125 975.070312 975.117188 971.921875 971.203125 974.742188 C 967.285156 977.5625 968.023438 985.28125 972.847656 991.984375 C 976.238281 996.695312 980.742188 999.640625 984.484375 1000 L 985.988281 1000 C 986.980469 999.894531 987.890625 999.578125 988.675781 999.015625 C 992.589844 996.195312 991.855469 988.476562 987.027344 981.773438" fill="#7f7e7c"/></g><g id="change1_3"><path d="M 994.375 960.574219 C 989.71875 962.226562 988.238281 970.023438 991.066406 977.992188 C 993.011719 983.480469 996.496094 987.617188 1000 989.121094 L 1000 961.390625 C 998.089844 960.292969 996.132812 959.949219 994.375 960.574219" fill="#7f7e7c"/></g><g id="change1_4"><path d="M 760.066406 994.652344 C 757.394531 993.8125 754.589844 994.398438 751.84375 994.105469 C 749.019531 993.804688 748.238281 993.347656 745.960938 995.84375 C 744.941406 996.964844 744.238281 998.574219 743.5 1000 L 766.464844 1000 C 764.738281 997.542969 763.207031 995.636719 760.066406 994.652344" fill="#7f7e7c"/></g><g id="change1_5"><path d="M 737.027344 981.773438 C 732.203125 975.070312 725.117188 971.921875 721.203125 974.742188 C 717.285156 977.5625 718.023438 985.28125 722.847656 991.984375 C 726.238281 996.695312 730.742188 999.640625 734.484375 1000 L 735.988281 1000 C 736.980469 999.894531 737.890625 999.578125 738.675781 999.015625 C 742.589844 996.195312 741.855469 988.476562 737.027344 981.773438" fill="#7f7e7c"/></g><g id="change1_6"><path d="M 744.375 960.574219 C 739.71875 962.226562 738.238281 970.023438 741.066406 977.992188 C 743.894531 985.960938 749.957031 991.082031 754.613281 989.425781 C 759.269531 987.777344 760.75 979.976562 757.925781 972.011719 C 755.097656 964.042969 749.03125 958.921875 744.375 960.574219" fill="#7f7e7c"/></g><g id="change1_7"><path d="M 783.554688 982.648438 C 780.726562 974.683594 774.664062 969.5625 770.007812 971.214844 C 765.351562 972.867188 763.871094 980.664062 766.695312 988.632812 C 768.765625 994.464844 772.574219 998.761719 776.289062 1000 L 780.394531 1000 C 784.929688 998.230469 786.351562 990.527344 783.554688 982.648438" fill="#7f7e7c"/></g><g id="change1_8"><path d="M 510.066406 994.652344 C 507.394531 993.8125 504.589844 994.398438 501.84375 994.105469 C 499.019531 993.804688 498.238281 993.347656 495.960938 995.84375 C 494.941406 996.964844 494.238281 998.574219 493.5 1000 L 516.464844 1000 C 514.738281 997.542969 513.207031 995.636719 510.066406 994.652344" fill="#7f7e7c"/></g><g id="change1_9"><path d="M 487.027344 981.773438 C 482.203125 975.070312 475.117188 971.921875 471.203125 974.742188 C 467.285156 977.5625 468.023438 985.28125 472.847656 991.984375 C 476.238281 996.695312 480.742188 999.640625 484.484375 1000 L 485.988281 1000 C 486.980469 999.894531 487.890625 999.578125 488.675781 999.015625 C 492.589844 996.195312 491.855469 988.476562 487.027344 981.773438" fill="#7f7e7c"/></g><g id="change1_10"><path d="M 494.375 960.574219 C 489.71875 962.226562 488.238281 970.023438 491.066406 977.992188 C 493.894531 985.960938 499.957031 991.082031 504.613281 989.425781 C 509.269531 987.777344 510.75 979.976562 507.925781 972.011719 C 505.097656 964.042969 499.03125 958.921875 494.375 960.574219" fill="#7f7e7c"/></g><g id="change1_11"><path d="M 533.554688 982.648438 C 530.726562 974.683594 524.664062 969.5625 520.007812 971.214844 C 515.351562 972.867188 513.871094 980.664062 516.695312 988.632812 C 518.765625 994.464844 522.574219 998.761719 526.289062 1000 L 530.394531 1000 C 534.929688 998.230469 536.351562 990.527344 533.554688 982.648438" fill="#7f7e7c"/></g><g id="change1_12"><path d="M 260.066406 994.652344 C 257.394531 993.8125 254.589844 994.398438 251.84375 994.105469 C 249.019531 993.804688 248.238281 993.347656 245.960938 995.84375 C 244.941406 996.964844 244.238281 998.574219 243.5 1000 L 266.464844 1000 C 264.738281 997.542969 263.207031 995.636719 260.066406 994.652344" fill="#7f7e7c"/></g><g id="change1_13"><path d="M 237.027344 981.773438 C 232.203125 975.070312 225.117188 971.921875 221.203125 974.742188 C 217.285156 977.5625 218.023438 985.28125 222.847656 991.984375 C 226.238281 996.695312 230.742188 999.640625 234.484375 1000 L 235.988281 1000 C 236.980469 999.894531 237.890625 999.578125 238.675781 999.015625 C 242.589844 996.195312 241.855469 988.476562 237.027344 981.773438" fill="#7f7e7c"/></g><g id="change1_14"><path d="M 244.375 960.574219 C 239.71875 962.226562 238.238281 970.023438 241.066406 977.992188 C 243.894531 985.960938 249.957031 991.082031 254.613281 989.425781 C 259.269531 987.777344 260.75 979.976562 257.925781 972.011719 C 255.097656 964.042969 249.03125 958.921875 244.375 960.574219" fill="#7f7e7c"/></g><g id="change1_15"><path d="M 283.554688 982.648438 C 280.726562 974.683594 274.664062 969.5625 270.007812 971.214844 C 265.351562 972.867188 263.871094 980.664062 266.695312 988.632812 C 268.765625 994.464844 272.574219 998.761719 276.289062 1000 L 280.394531 1000 C 284.929688 998.230469 286.351562 990.527344 283.554688 982.648438" fill="#7f7e7c"/></g><g id="change1_16"><path d="M 10.066406 994.652344 C 7.394531 993.8125 4.589844 994.398438 1.84375 994.105469 C 1.113281 994.027344 0.519531 993.941406 0 993.898438 L 0 1000 L 16.464844 1000 C 14.738281 997.542969 13.207031 995.636719 10.066406 994.652344" fill="#7f7e7c"/></g><g id="change1_17"><path d="M 4.613281 989.425781 C 9.269531 987.777344 10.75 979.976562 7.925781 972.011719 C 6.164062 967.050781 3.148438 963.195312 0 961.390625 L 0 989.121094 C 1.582031 989.796875 3.164062 989.941406 4.613281 989.425781" fill="#7f7e7c"/></g><g id="change1_18"><path d="M 33.554688 982.648438 C 30.726562 974.683594 24.664062 969.5625 20.007812 971.214844 C 15.351562 972.867188 13.871094 980.664062 16.695312 988.632812 C 18.765625 994.464844 22.574219 998.761719 26.289062 1000 L 30.394531 1000 C 34.925781 998.230469 36.351562 990.527344 33.554688 982.648438" fill="#7f7e7c"/></g><g id="change1_19"><path d="M 995.960938 745.84375 C 994.691406 747.238281 993.910156 749.394531 992.949219 751.007812 C 991.867188 752.828125 990.335938 755.050781 989.742188 757.082031 C 988.671875 760.757812 992.050781 764.085938 992.640625 767.59375 C 992.925781 769.285156 992.847656 771.027344 992.207031 772.632812 C 990.757812 776.269531 986.335938 777.929688 987.59375 782.542969 C 988.144531 784.554688 989.59375 786.21875 991.285156 787.433594 C 993.777344 789.21875 997.019531 790.09375 1000 789.589844 L 1000 743.898438 C 998.515625 743.769531 997.648438 743.992188 995.960938 745.84375" fill="#7f7e7c"/></g><g id="change1_20"><path d="M 971.203125 724.742188 C 967.285156 727.5625 968.023438 735.28125 972.847656 741.984375 C 977.671875 748.6875 984.757812 751.835938 988.675781 749.015625 C 992.589844 746.195312 991.855469 738.476562 987.027344 731.773438 C 982.203125 725.070312 975.117188 721.925781 971.203125 724.742188" fill="#7f7e7c"/></g><g id="change1_21"><path d="M 965.484375 751.242188 C 961.570312 754.0625 962.304688 761.78125 967.128906 768.484375 C 971.953125 775.1875 979.039062 778.335938 982.957031 775.515625 C 986.871094 772.695312 986.136719 764.976562 981.3125 758.273438 C 976.488281 751.570312 969.402344 748.425781 965.484375 751.242188" fill="#7f7e7c"/></g><g id="change1_22"><path d="M 994.375 710.574219 C 989.71875 712.226562 988.238281 720.023438 991.066406 727.992188 C 993.011719 733.480469 996.496094 737.617188 1000 739.121094 L 1000 711.390625 C 998.089844 710.296875 996.132812 709.949219 994.375 710.574219" fill="#7f7e7c"/></g><g id="change1_23"><path d="M 770.664062 754.429688 C 769.214844 753.542969 768.042969 752.257812 767.070312 750.863281 C 765.066406 747.988281 763.566406 745.75 760.066406 744.652344 C 757.394531 743.8125 754.589844 744.398438 751.84375 744.105469 C 749.019531 743.804688 748.238281 743.347656 745.960938 745.84375 C 744.691406 747.238281 743.910156 749.394531 742.949219 751.007812 C 741.867188 752.828125 740.335938 755.050781 739.742188 757.082031 C 738.671875 760.757812 742.050781 764.085938 742.640625 767.59375 C 742.925781 769.285156 742.847656 771.027344 742.207031 772.632812 C 740.757812 776.269531 736.335938 777.929688 737.59375 782.542969 C 738.144531 784.554688 739.59375 786.21875 741.285156 787.433594 C 744.5625 789.777344 749.121094 790.558594 752.699219 788.703125 C 755.15625 787.425781 757.480469 785.296875 759.355469 783.277344 C 760.871094 781.644531 762.0625 779.515625 761.890625 777.292969 C 761.714844 775.070312 759.757812 772.921875 757.539062 773.167969 C 759.023438 772.207031 761.023438 772.574219 762.597656 773.382812 C 764.171875 774.191406 765.53125 775.386719 767.144531 776.117188 C 772.722656 778.65625 777.910156 776.960938 782.75 773.703125 C 783.582031 773.144531 784.429688 772.570312 785.042969 771.773438 C 785.597656 771.054688 785.929688 770.191406 786.226562 769.328125 C 786.769531 767.730469 787.101562 766.0625 787.019531 764.414062 C 786.960938 763.277344 786.710938 762.148438 786.195312 761.058594 C 783.355469 755.03125 775.347656 757.300781 770.664062 754.429688" fill="#7f7e7c"/></g><g id="change1_24"><path d="M 721.203125 724.742188 C 717.285156 727.5625 718.023438 735.28125 722.847656 741.984375 C 727.671875 748.6875 734.757812 751.835938 738.675781 749.015625 C 742.589844 746.195312 741.855469 738.476562 737.027344 731.773438 C 732.203125 725.070312 725.117188 721.925781 721.203125 724.742188" fill="#7f7e7c"/></g><g id="change1_25"><path d="M 715.484375 751.242188 C 711.570312 754.0625 712.304688 761.78125 717.128906 768.484375 C 721.953125 775.1875 729.039062 778.335938 732.957031 775.515625 C 736.871094 772.695312 736.136719 764.976562 731.3125 758.273438 C 726.488281 751.570312 719.402344 748.425781 715.484375 751.242188" fill="#7f7e7c"/></g><g id="change1_26"><path d="M 744.375 710.574219 C 739.71875 712.226562 738.238281 720.023438 741.066406 727.992188 C 743.894531 735.960938 749.957031 741.078125 754.613281 739.429688 C 759.269531 737.777344 760.75 729.976562 757.925781 722.011719 C 755.097656 714.042969 749.03125 708.921875 744.375 710.574219" fill="#7f7e7c"/></g><g id="change1_27"><path d="M 770.007812 721.214844 C 765.351562 722.867188 763.871094 730.664062 766.695312 738.632812 C 769.523438 746.601562 775.589844 751.71875 780.246094 750.066406 C 784.902344 748.414062 786.382812 740.617188 783.554688 732.648438 C 780.726562 724.683594 774.664062 719.5625 770.007812 721.214844" fill="#7f7e7c"/></g><g id="change1_28"><path d="M 520.664062 754.429688 C 519.214844 753.542969 518.042969 752.257812 517.070312 750.863281 C 515.066406 747.988281 513.566406 745.75 510.066406 744.652344 C 507.394531 743.8125 504.589844 744.398438 501.84375 744.105469 C 499.019531 743.804688 498.238281 743.347656 495.960938 745.84375 C 494.691406 747.238281 493.910156 749.394531 492.949219 751.007812 C 491.867188 752.828125 490.335938 755.050781 489.742188 757.082031 C 488.671875 760.757812 492.050781 764.085938 492.640625 767.59375 C 492.925781 769.285156 492.847656 771.027344 492.207031 772.632812 C 490.757812 776.269531 486.335938 777.929688 487.59375 782.542969 C 488.144531 784.554688 489.59375 786.21875 491.285156 787.433594 C 494.5625 789.777344 499.121094 790.558594 502.699219 788.703125 C 505.15625 787.425781 507.480469 785.296875 509.355469 783.277344 C 510.871094 781.644531 512.0625 779.515625 511.890625 777.292969 C 511.714844 775.070312 509.757812 772.921875 507.539062 773.167969 C 509.023438 772.207031 511.023438 772.574219 512.597656 773.382812 C 514.171875 774.191406 515.53125 775.386719 517.144531 776.117188 C 522.722656 778.65625 527.910156 776.960938 532.75 773.703125 C 533.582031 773.144531 534.429688 772.570312 535.042969 771.773438 C 535.597656 771.054688 535.929688 770.191406 536.226562 769.328125 C 536.769531 767.730469 537.101562 766.0625 537.019531 764.414062 C 536.960938 763.277344 536.710938 762.148438 536.195312 761.058594 C 533.355469 755.03125 525.347656 757.300781 520.664062 754.429688" fill="#7f7e7c"/></g><g id="change1_29"><path d="M 471.203125 724.742188 C 467.285156 727.5625 468.023438 735.28125 472.847656 741.984375 C 477.671875 748.6875 484.757812 751.835938 488.675781 749.015625 C 492.589844 746.195312 491.855469 738.476562 487.027344 731.773438 C 482.203125 725.070312 475.117188 721.925781 471.203125 724.742188" fill="#7f7e7c"/></g><g id="change1_30"><path d="M 465.484375 751.242188 C 461.570312 754.0625 462.304688 761.78125 467.128906 768.484375 C 471.953125 775.1875 479.039062 778.335938 482.957031 775.515625 C 486.871094 772.695312 486.136719 764.976562 481.3125 758.273438 C 476.488281 751.570312 469.402344 748.425781 465.484375 751.242188" fill="#7f7e7c"/></g><g id="change1_31"><path d="M 494.375 710.574219 C 489.71875 712.226562 488.238281 720.023438 491.066406 727.992188 C 493.894531 735.960938 499.957031 741.078125 504.613281 739.429688 C 509.269531 737.777344 510.75 729.976562 507.925781 722.011719 C 505.097656 714.042969 499.03125 708.921875 494.375 710.574219" fill="#7f7e7c"/></g><g id="change1_32"><path d="M 520.007812 721.214844 C 515.351562 722.867188 513.871094 730.664062 516.695312 738.632812 C 519.523438 746.601562 525.589844 751.71875 530.246094 750.066406 C 534.902344 748.414062 536.382812 740.617188 533.554688 732.648438 C 530.726562 724.683594 524.664062 719.5625 520.007812 721.214844" fill="#7f7e7c"/></g><g id="change1_33"><path d="M 270.664062 754.429688 C 269.214844 753.542969 268.042969 752.257812 267.070312 750.863281 C 265.066406 747.988281 263.566406 745.75 260.066406 744.652344 C 257.394531 743.8125 254.589844 744.398438 251.84375 744.105469 C 249.019531 743.804688 248.238281 743.347656 245.960938 745.84375 C 244.691406 747.238281 243.910156 749.394531 242.949219 751.007812 C 241.867188 752.828125 240.335938 755.050781 239.742188 757.082031 C 238.671875 760.757812 242.050781 764.085938 242.640625 767.59375 C 242.925781 769.285156 242.847656 771.027344 242.207031 772.632812 C 240.757812 776.269531 236.335938 777.929688 237.59375 782.542969 C 238.144531 784.554688 239.59375 786.21875 241.285156 787.433594 C 244.5625 789.777344 249.121094 790.558594 252.699219 788.703125 C 255.15625 787.425781 257.480469 785.296875 259.355469 783.277344 C 260.871094 781.644531 262.0625 779.515625 261.890625 777.292969 C 261.714844 775.070312 259.757812 772.921875 257.539062 773.167969 C 259.023438 772.207031 261.023438 772.574219 262.597656 773.382812 C 264.171875 774.191406 265.53125 775.386719 267.144531 776.117188 C 272.722656 778.65625 277.910156 776.960938 282.75 773.703125 C 283.582031 773.144531 284.429688 772.570312 285.042969 771.773438 C 285.597656 771.054688 285.929688 770.191406 286.226562 769.328125 C 286.769531 767.730469 287.101562 766.0625 287.019531 764.414062 C 286.960938 763.277344 286.710938 762.148438 286.195312 761.058594 C 283.355469 755.03125 275.347656 757.300781 270.664062 754.429688" fill="#7f7e7c"/></g><g id="change1_34"><path d="M 221.203125 724.742188 C 217.285156 727.5625 218.023438 735.28125 222.847656 741.984375 C 227.671875 748.6875 234.757812 751.835938 238.675781 749.015625 C 242.589844 746.195312 241.855469 738.476562 237.027344 731.773438 C 232.203125 725.070312 225.117188 721.925781 221.203125 724.742188" fill="#7f7e7c"/></g><g id="change1_35"><path d="M 215.484375 751.242188 C 211.570312 754.0625 212.304688 761.78125 217.128906 768.484375 C 221.953125 775.1875 229.039062 778.335938 232.957031 775.515625 C 236.871094 772.695312 236.136719 764.976562 231.3125 758.273438 C 226.488281 751.570312 219.402344 748.425781 215.484375 751.242188" fill="#7f7e7c"/></g><g id="change1_36"><path d="M 244.375 710.574219 C 239.71875 712.226562 238.238281 720.023438 241.066406 727.992188 C 243.894531 735.960938 249.957031 741.078125 254.613281 739.429688 C 259.269531 737.777344 260.75 729.976562 257.925781 722.011719 C 255.097656 714.042969 249.03125 708.921875 244.375 710.574219" fill="#7f7e7c"/></g><g id="change1_37"><path d="M 270.007812 721.214844 C 265.351562 722.867188 263.871094 730.664062 266.695312 738.632812 C 269.523438 746.601562 275.589844 751.71875 280.246094 750.066406 C 284.902344 748.414062 286.382812 740.617188 283.554688 732.648438 C 280.726562 724.683594 274.664062 719.5625 270.007812 721.214844" fill="#7f7e7c"/></g><g id="change1_38"><path d="M 9.355469 783.277344 C 10.871094 781.644531 12.0625 779.515625 11.890625 777.292969 C 11.714844 775.070312 9.757812 772.921875 7.539062 773.167969 C 9.023438 772.207031 11.023438 772.574219 12.597656 773.382812 C 14.171875 774.191406 15.53125 775.386719 17.144531 776.117188 C 22.722656 778.65625 27.910156 776.960938 32.75 773.703125 C 33.582031 773.144531 34.429688 772.570312 35.042969 771.773438 C 35.597656 771.054688 35.929688 770.191406 36.226562 769.328125 C 36.773438 767.730469 37.101562 766.0625 37.019531 764.414062 C 36.960938 763.277344 36.707031 762.148438 36.195312 761.058594 C 33.355469 755.03125 25.347656 757.300781 20.664062 754.429688 C 19.214844 753.542969 18.042969 752.257812 17.070312 750.863281 C 15.066406 747.988281 13.566406 745.75 10.066406 744.652344 C 7.394531 743.8125 4.589844 744.398438 1.84375 744.105469 C 1.113281 744.027344 0.519531 743.941406 0 743.898438 L 0 789.589844 C 0.933594 789.433594 1.84375 789.144531 2.699219 788.703125 C 5.15625 787.425781 7.480469 785.296875 9.355469 783.277344" fill="#7f7e7c"/></g><g id="change1_39"><path d="M 4.613281 739.429688 C 9.269531 737.777344 10.75 729.976562 7.925781 722.011719 C 6.164062 717.050781 3.148438 713.195312 0 711.390625 L 0 739.121094 C 1.582031 739.800781 3.164062 739.941406 4.613281 739.429688" fill="#7f7e7c"/></g><g id="change1_40"><path d="M 20.007812 721.214844 C 15.351562 722.867188 13.871094 730.664062 16.695312 738.632812 C 19.523438 746.601562 25.589844 751.71875 30.246094 750.066406 C 34.902344 748.414062 36.382812 740.617188 33.554688 732.648438 C 30.726562 724.683594 24.664062 719.5625 20.007812 721.214844" fill="#7f7e7c"/></g><g id="change1_41"><path d="M 995.960938 495.84375 C 994.691406 497.238281 993.910156 499.394531 992.949219 501.007812 C 991.867188 502.828125 990.335938 505.050781 989.742188 507.082031 C 988.671875 510.757812 992.050781 514.085938 992.640625 517.59375 C 992.925781 519.285156 992.847656 521.027344 992.207031 522.632812 C 990.757812 526.269531 986.335938 527.929688 987.59375 532.542969 C 988.144531 534.554688 989.59375 536.21875 991.285156 537.433594 C 993.777344 539.21875 997.019531 540.09375 1000 539.589844 L 1000 493.898438 C 998.515625 493.769531 997.648438 493.992188 995.960938 495.84375" fill="#7f7e7c"/></g><g id="change1_42"><path d="M 971.203125 474.742188 C 967.285156 477.5625 968.023438 485.28125 972.847656 491.984375 C 977.671875 498.6875 984.757812 501.835938 988.675781 499.015625 C 992.589844 496.195312 991.855469 488.476562 987.027344 481.773438 C 982.203125 475.070312 975.117188 471.925781 971.203125 474.742188" fill="#7f7e7c"/></g><g id="change1_43"><path d="M 965.484375 501.242188 C 961.570312 504.0625 962.304688 511.78125 967.128906 518.484375 C 971.953125 525.1875 979.039062 528.335938 982.957031 525.515625 C 986.871094 522.695312 986.136719 514.976562 981.3125 508.273438 C 976.488281 501.570312 969.402344 498.425781 965.484375 501.242188" fill="#7f7e7c"/></g><g id="change1_44"><path d="M 994.375 460.574219 C 989.71875 462.226562 988.238281 470.023438 991.066406 477.992188 C 993.011719 483.480469 996.496094 487.617188 1000 489.121094 L 1000 461.390625 C 998.089844 460.296875 996.132812 459.949219 994.375 460.574219" fill="#7f7e7c"/></g><g id="change1_45"><path d="M 770.664062 504.429688 C 769.214844 503.542969 768.042969 502.257812 767.070312 500.863281 C 765.066406 497.988281 763.566406 495.75 760.066406 494.652344 C 757.394531 493.8125 754.589844 494.398438 751.84375 494.105469 C 749.019531 493.804688 748.238281 493.347656 745.960938 495.84375 C 744.691406 497.238281 743.910156 499.394531 742.949219 501.007812 C 741.867188 502.828125 740.335938 505.050781 739.742188 507.082031 C 738.671875 510.757812 742.050781 514.085938 742.640625 517.59375 C 742.925781 519.285156 742.847656 521.027344 742.207031 522.632812 C 740.757812 526.269531 736.335938 527.929688 737.59375 532.542969 C 738.144531 534.554688 739.59375 536.21875 741.285156 537.433594 C 744.5625 539.777344 749.121094 540.558594 752.699219 538.703125 C 755.15625 537.425781 757.480469 535.296875 759.355469 533.277344 C 760.871094 531.644531 762.0625 529.515625 761.890625 527.292969 C 761.714844 525.070312 759.757812 522.921875 757.539062 523.167969 C 759.023438 522.207031 761.023438 522.574219 762.597656 523.382812 C 764.171875 524.191406 765.53125 525.386719 767.144531 526.117188 C 772.722656 528.65625 777.910156 526.960938 782.75 523.703125 C 783.582031 523.144531 784.429688 522.570312 785.042969 521.773438 C 785.597656 521.054688 785.929688 520.191406 786.226562 519.328125 C 786.769531 517.730469 787.101562 516.0625 787.019531 514.414062 C 786.960938 513.277344 786.710938 512.148438 786.195312 511.058594 C 783.355469 505.03125 775.347656 507.300781 770.664062 504.429688" fill="#7f7e7c"/></g><g id="change1_46"><path d="M 721.203125 474.742188 C 717.285156 477.5625 718.023438 485.28125 722.847656 491.984375 C 727.671875 498.6875 734.757812 501.835938 738.675781 499.015625 C 742.589844 496.195312 741.855469 488.476562 737.027344 481.773438 C 732.203125 475.070312 725.117188 471.925781 721.203125 474.742188" fill="#7f7e7c"/></g><g id="change1_47"><path d="M 715.484375 501.242188 C 711.570312 504.0625 712.304688 511.78125 717.128906 518.484375 C 721.953125 525.1875 729.039062 528.335938 732.957031 525.515625 C 736.871094 522.695312 736.136719 514.976562 731.3125 508.273438 C 726.488281 501.570312 719.402344 498.425781 715.484375 501.242188" fill="#7f7e7c"/></g><g id="change1_48"><path d="M 744.375 460.574219 C 739.71875 462.226562 738.238281 470.023438 741.066406 477.992188 C 743.894531 485.960938 749.957031 491.078125 754.613281 489.429688 C 759.269531 487.777344 760.75 479.976562 757.925781 472.011719 C 755.097656 464.042969 749.03125 458.921875 744.375 460.574219" fill="#7f7e7c"/></g><g id="change1_49"><path d="M 770.007812 471.214844 C 765.351562 472.867188 763.871094 480.664062 766.695312 488.632812 C 769.523438 496.601562 775.589844 501.71875 780.246094 500.066406 C 784.902344 498.414062 786.382812 490.617188 783.554688 482.648438 C 780.726562 474.683594 774.664062 469.5625 770.007812 471.214844" fill="#7f7e7c"/></g><g id="change1_50"><path d="M 520.664062 504.429688 C 519.214844 503.542969 518.042969 502.257812 517.070312 500.863281 C 515.066406 497.988281 513.566406 495.75 510.066406 494.652344 C 507.394531 493.8125 504.589844 494.398438 501.84375 494.105469 C 499.019531 493.804688 498.238281 493.347656 495.960938 495.84375 C 494.691406 497.238281 493.910156 499.394531 492.949219 501.007812 C 491.867188 502.828125 490.335938 505.050781 489.742188 507.082031 C 488.671875 510.757812 492.050781 514.085938 492.640625 517.59375 C 492.925781 519.285156 492.847656 521.027344 492.207031 522.632812 C 490.757812 526.269531 486.335938 527.929688 487.59375 532.542969 C 488.144531 534.554688 489.59375 536.21875 491.285156 537.433594 C 494.5625 539.777344 499.121094 540.558594 502.699219 538.703125 C 505.15625 537.425781 507.480469 535.296875 509.355469 533.277344 C 510.871094 531.644531 512.0625 529.515625 511.890625 527.292969 C 511.714844 525.070312 509.757812 522.921875 507.539062 523.167969 C 509.023438 522.207031 511.023438 522.574219 512.597656 523.382812 C 514.171875 524.191406 515.53125 525.386719 517.144531 526.117188 C 522.722656 528.65625 527.910156 526.960938 532.75 523.703125 C 533.582031 523.144531 534.429688 522.570312 535.042969 521.773438 C 535.597656 521.054688 535.929688 520.191406 536.226562 519.328125 C 536.769531 517.730469 537.101562 516.0625 537.019531 514.414062 C 536.960938 513.277344 536.710938 512.148438 536.195312 511.058594 C 533.355469 505.03125 525.347656 507.300781 520.664062 504.429688" fill="#7f7e7c"/></g><g id="change1_51"><path d="M 471.203125 474.742188 C 467.285156 477.5625 468.023438 485.28125 472.847656 491.984375 C 477.671875 498.6875 484.757812 501.835938 488.675781 499.015625 C 492.589844 496.195312 491.855469 488.476562 487.027344 481.773438 C 482.203125 475.070312 475.117188 471.925781 471.203125 474.742188" fill="#7f7e7c"/></g><g id="change1_52"><path d="M 465.484375 501.242188 C 461.570312 504.0625 462.304688 511.78125 467.128906 518.484375 C 471.953125 525.1875 479.039062 528.335938 482.957031 525.515625 C 486.871094 522.695312 486.136719 514.976562 481.3125 508.273438 C 476.488281 501.570312 469.402344 498.425781 465.484375 501.242188" fill="#7f7e7c"/></g><g id="change1_53"><path d="M 494.375 460.574219 C 489.71875 462.226562 488.238281 470.023438 491.066406 477.992188 C 493.894531 485.960938 499.957031 491.078125 504.613281 489.429688 C 509.269531 487.777344 510.75 479.976562 507.925781 472.011719 C 505.097656 464.042969 499.03125 458.921875 494.375 460.574219" fill="#7f7e7c"/></g><g id="change1_54"><path d="M 520.007812 471.214844 C 515.351562 472.867188 513.871094 480.664062 516.695312 488.632812 C 519.523438 496.601562 525.589844 501.71875 530.246094 500.066406 C 534.902344 498.414062 536.382812 490.617188 533.554688 482.648438 C 530.726562 474.683594 524.664062 469.5625 520.007812 471.214844" fill="#7f7e7c"/></g><g id="change1_55"><path d="M 270.664062 504.429688 C 269.214844 503.542969 268.042969 502.257812 267.070312 500.863281 C 265.066406 497.988281 263.566406 495.75 260.066406 494.652344 C 257.394531 493.8125 254.589844 494.398438 251.84375 494.105469 C 249.019531 493.804688 248.238281 493.347656 245.960938 495.84375 C 244.691406 497.238281 243.910156 499.394531 242.949219 501.007812 C 241.867188 502.828125 240.335938 505.050781 239.742188 507.082031 C 238.671875 510.757812 242.050781 514.085938 242.640625 517.59375 C 242.925781 519.285156 242.847656 521.027344 242.207031 522.632812 C 240.757812 526.269531 236.335938 527.929688 237.59375 532.542969 C 238.144531 534.554688 239.59375 536.21875 241.285156 537.433594 C 244.5625 539.777344 249.121094 540.558594 252.699219 538.703125 C 255.15625 537.425781 257.480469 535.296875 259.355469 533.277344 C 260.871094 531.644531 262.0625 529.515625 261.890625 527.292969 C 261.714844 525.070312 259.757812 522.921875 257.539062 523.167969 C 259.023438 522.207031 261.023438 522.574219 262.597656 523.382812 C 264.171875 524.191406 265.53125 525.386719 267.144531 526.117188 C 272.722656 528.65625 277.910156 526.960938 282.75 523.703125 C 283.582031 523.144531 284.429688 522.570312 285.042969 521.773438 C 285.597656 521.054688 285.929688 520.191406 286.226562 519.328125 C 286.769531 517.730469 287.101562 516.0625 287.019531 514.414062 C 286.960938 513.277344 286.710938 512.148438 286.195312 511.058594 C 283.355469 505.03125 275.347656 507.300781 270.664062 504.429688" fill="#7f7e7c"/></g><g id="change1_56"><path d="M 221.203125 474.742188 C 217.285156 477.5625 218.023438 485.28125 222.847656 491.984375 C 227.671875 498.6875 234.757812 501.835938 238.675781 499.015625 C 242.589844 496.195312 241.855469 488.476562 237.027344 481.773438 C 232.203125 475.070312 225.117188 471.925781 221.203125 474.742188" fill="#7f7e7c"/></g><g id="change1_57"><path d="M 215.484375 501.242188 C 211.570312 504.0625 212.304688 511.78125 217.128906 518.484375 C 221.953125 525.1875 229.039062 528.335938 232.957031 525.515625 C 236.871094 522.695312 236.136719 514.976562 231.3125 508.273438 C 226.488281 501.570312 219.402344 498.425781 215.484375 501.242188" fill="#7f7e7c"/></g><g id="change1_58"><path d="M 244.375 460.574219 C 239.71875 462.226562 238.238281 470.023438 241.066406 477.992188 C 243.894531 485.960938 249.957031 491.078125 254.613281 489.429688 C 259.269531 487.777344 260.75 479.976562 257.925781 472.011719 C 255.097656 464.042969 249.03125 458.921875 244.375 460.574219" fill="#7f7e7c"/></g><g id="change1_59"><path d="M 270.007812 471.214844 C 265.351562 472.867188 263.871094 480.664062 266.695312 488.632812 C 269.523438 496.601562 275.589844 501.71875 280.246094 500.066406 C 284.902344 498.414062 286.382812 490.617188 283.554688 482.648438 C 280.726562 474.683594 274.664062 469.5625 270.007812 471.214844" fill="#7f7e7c"/></g><g id="change1_60"><path d="M 9.355469 533.277344 C 10.871094 531.644531 12.0625 529.515625 11.890625 527.292969 C 11.714844 525.070312 9.757812 522.921875 7.539062 523.167969 C 9.023438 522.207031 11.023438 522.574219 12.597656 523.382812 C 14.171875 524.191406 15.53125 525.386719 17.144531 526.117188 C 22.722656 528.65625 27.910156 526.960938 32.75 523.703125 C 33.582031 523.144531 34.429688 522.570312 35.042969 521.773438 C 35.597656 521.054688 35.929688 520.191406 36.226562 519.328125 C 36.773438 517.730469 37.101562 516.0625 37.019531 514.414062 C 36.960938 513.277344 36.707031 512.148438 36.195312 511.058594 C 33.355469 505.03125 25.347656 507.300781 20.664062 504.429688 C 19.214844 503.542969 18.042969 502.257812 17.070312 500.863281 C 15.066406 497.988281 13.566406 495.75 10.066406 494.652344 C 7.394531 493.8125 4.589844 494.398438 1.84375 494.105469 C 1.113281 494.027344 0.519531 493.941406 0 493.898438 L 0 539.589844 C 0.933594 539.433594 1.84375 539.144531 2.699219 538.703125 C 5.15625 537.425781 7.480469 535.296875 9.355469 533.277344" fill="#7f7e7c"/></g><g id="change1_61"><path d="M 4.613281 489.429688 C 9.269531 487.777344 10.75 479.976562 7.925781 472.011719 C 6.164062 467.050781 3.148438 463.195312 0 461.390625 L 0 489.121094 C 1.582031 489.800781 3.164062 489.941406 4.613281 489.429688" fill="#7f7e7c"/></g><g id="change1_62"><path d="M 20.007812 471.214844 C 15.351562 472.867188 13.871094 480.664062 16.695312 488.632812 C 19.523438 496.601562 25.589844 501.71875 30.246094 500.066406 C 34.902344 498.414062 36.382812 490.617188 33.554688 482.648438 C 30.726562 474.683594 24.664062 469.5625 20.007812 471.214844" fill="#7f7e7c"/></g><g id="change1_63"><path d="M 995.960938 245.84375 C 994.691406 247.238281 993.910156 249.394531 992.949219 251.007812 C 991.867188 252.828125 990.335938 255.050781 989.742188 257.082031 C 988.671875 260.757812 992.050781 264.085938 992.640625 267.59375 C 992.925781 269.285156 992.847656 271.027344 992.207031 272.632812 C 990.757812 276.269531 986.335938 277.929688 987.59375 282.542969 C 988.144531 284.554688 989.59375 286.21875 991.285156 287.433594 C 993.777344 289.21875 997.019531 290.09375 1000 289.589844 L 1000 243.898438 C 998.515625 243.769531 997.648438 243.992188 995.960938 245.84375" fill="#7f7e7c"/></g><g id="change1_64"><path d="M 971.203125 224.742188 C 967.285156 227.5625 968.023438 235.28125 972.847656 241.984375 C 977.671875 248.6875 984.757812 251.835938 988.675781 249.015625 C 992.589844 246.195312 991.855469 238.476562 987.027344 231.773438 C 982.203125 225.070312 975.117188 221.925781 971.203125 224.742188" fill="#7f7e7c"/></g><g id="change1_65"><path d="M 965.484375 251.242188 C 961.570312 254.0625 962.304688 261.78125 967.128906 268.484375 C 971.953125 275.1875 979.039062 278.335938 982.957031 275.515625 C 986.871094 272.695312 986.136719 264.976562 981.3125 258.273438 C 976.488281 251.570312 969.402344 248.425781 965.484375 251.242188" fill="#7f7e7c"/></g><g id="change1_66"><path d="M 994.375 210.574219 C 989.71875 212.226562 988.238281 220.023438 991.066406 227.992188 C 993.011719 233.480469 996.496094 237.617188 1000 239.121094 L 1000 211.390625 C 998.089844 210.296875 996.132812 209.949219 994.375 210.574219" fill="#7f7e7c"/></g><g id="change1_67"><path d="M 770.664062 254.429688 C 769.214844 253.542969 768.042969 252.257812 767.070312 250.863281 C 765.066406 247.988281 763.566406 245.75 760.066406 244.652344 C 757.394531 243.8125 754.589844 244.398438 751.84375 244.105469 C 749.019531 243.804688 748.238281 243.347656 745.960938 245.84375 C 744.691406 247.238281 743.910156 249.394531 742.949219 251.007812 C 741.867188 252.828125 740.335938 255.050781 739.742188 257.082031 C 738.671875 260.757812 742.050781 264.085938 742.640625 267.59375 C 742.925781 269.285156 742.847656 271.027344 742.207031 272.632812 C 740.757812 276.269531 736.335938 277.929688 737.59375 282.542969 C 738.144531 284.554688 739.59375 286.21875 741.285156 287.433594 C 744.5625 289.777344 749.121094 290.558594 752.699219 288.703125 C 755.15625 287.425781 757.480469 285.296875 759.355469 283.277344 C 760.871094 281.644531 762.0625 279.515625 761.890625 277.292969 C 761.714844 275.070312 759.757812 272.921875 757.539062 273.167969 C 759.023438 272.207031 761.023438 272.574219 762.597656 273.382812 C 764.171875 274.191406 765.53125 275.386719 767.144531 276.117188 C 772.722656 278.65625 777.910156 276.960938 782.75 273.703125 C 783.582031 273.144531 784.429688 272.570312 785.042969 271.773438 C 785.597656 271.054688 785.929688 270.191406 786.226562 269.328125 C 786.769531 267.730469 787.101562 266.0625 787.019531 264.414062 C 786.960938 263.277344 786.710938 262.148438 786.195312 261.058594 C 783.355469 255.03125 775.347656 257.300781 770.664062 254.429688" fill="#7f7e7c"/></g><g id="change1_68"><path d="M 721.203125 224.742188 C 717.285156 227.5625 718.023438 235.28125 722.847656 241.984375 C 727.671875 248.6875 734.757812 251.835938 738.675781 249.015625 C 742.589844 246.195312 741.855469 238.476562 737.027344 231.773438 C 732.203125 225.070312 725.117188 221.925781 721.203125 224.742188" fill="#7f7e7c"/></g><g id="change1_69"><path d="M 715.484375 251.242188 C 711.570312 254.0625 712.304688 261.78125 717.128906 268.484375 C 721.953125 275.1875 729.039062 278.335938 732.957031 275.515625 C 736.871094 272.695312 736.136719 264.976562 731.3125 258.273438 C 726.488281 251.570312 719.402344 248.425781 715.484375 251.242188" fill="#7f7e7c"/></g><g id="change1_70"><path d="M 744.375 210.574219 C 739.71875 212.226562 738.238281 220.023438 741.066406 227.992188 C 743.894531 235.960938 749.957031 241.078125 754.613281 239.429688 C 759.269531 237.777344 760.75 229.976562 757.925781 222.011719 C 755.097656 214.042969 749.03125 208.921875 744.375 210.574219" fill="#7f7e7c"/></g><g id="change1_71"><path d="M 770.007812 221.214844 C 765.351562 222.867188 763.871094 230.664062 766.695312 238.632812 C 769.523438 246.601562 775.589844 251.71875 780.246094 250.066406 C 784.902344 248.414062 786.382812 240.617188 783.554688 232.648438 C 780.726562 224.683594 774.664062 219.5625 770.007812 221.214844" fill="#7f7e7c"/></g><g id="change1_72"><path d="M 520.664062 254.429688 C 519.214844 253.542969 518.042969 252.257812 517.070312 250.863281 C 515.066406 247.988281 513.566406 245.75 510.066406 244.652344 C 507.394531 243.8125 504.589844 244.398438 501.84375 244.105469 C 499.019531 243.804688 498.238281 243.347656 495.960938 245.84375 C 494.691406 247.238281 493.910156 249.394531 492.949219 251.007812 C 491.867188 252.828125 490.335938 255.050781 489.742188 257.082031 C 488.671875 260.757812 492.050781 264.085938 492.640625 267.59375 C 492.925781 269.285156 492.847656 271.027344 492.207031 272.632812 C 490.757812 276.269531 486.335938 277.929688 487.59375 282.542969 C 488.144531 284.554688 489.59375 286.21875 491.285156 287.433594 C 494.5625 289.777344 499.121094 290.558594 502.699219 288.703125 C 505.15625 287.425781 507.480469 285.296875 509.355469 283.277344 C 510.871094 281.644531 512.0625 279.515625 511.890625 277.292969 C 511.714844 275.070312 509.757812 272.921875 507.539062 273.167969 C 509.023438 272.207031 511.023438 272.574219 512.597656 273.382812 C 514.171875 274.191406 515.53125 275.386719 517.144531 276.117188 C 522.722656 278.65625 527.910156 276.960938 532.75 273.703125 C 533.582031 273.144531 534.429688 272.570312 535.042969 271.773438 C 535.597656 271.054688 535.929688 270.191406 536.226562 269.328125 C 536.769531 267.730469 537.101562 266.0625 537.019531 264.414062 C 536.960938 263.277344 536.710938 262.148438 536.195312 261.058594 C 533.355469 255.03125 525.347656 257.300781 520.664062 254.429688" fill="#7f7e7c"/></g><g id="change1_73"><path d="M 471.203125 224.742188 C 467.285156 227.5625 468.023438 235.28125 472.847656 241.984375 C 477.671875 248.6875 484.757812 251.835938 488.675781 249.015625 C 492.589844 246.195312 491.855469 238.476562 487.027344 231.773438 C 482.203125 225.070312 475.117188 221.925781 471.203125 224.742188" fill="#7f7e7c"/></g><g id="change1_74"><path d="M 465.484375 251.242188 C 461.570312 254.0625 462.304688 261.78125 467.128906 268.484375 C 471.953125 275.1875 479.039062 278.335938 482.957031 275.515625 C 486.871094 272.695312 486.136719 264.976562 481.3125 258.273438 C 476.488281 251.570312 469.402344 248.425781 465.484375 251.242188" fill="#7f7e7c"/></g><g id="change1_75"><path d="M 494.375 210.574219 C 489.71875 212.226562 488.238281 220.023438 491.066406 227.992188 C 493.894531 235.960938 499.957031 241.078125 504.613281 239.429688 C 509.269531 237.777344 510.75 229.976562 507.925781 222.011719 C 505.097656 214.042969 499.03125 208.921875 494.375 210.574219" fill="#7f7e7c"/></g><g id="change1_76"><path d="M 520.007812 221.214844 C 515.351562 222.867188 513.871094 230.664062 516.695312 238.632812 C 519.523438 246.601562 525.589844 251.71875 530.246094 250.066406 C 534.902344 248.414062 536.382812 240.617188 533.554688 232.648438 C 530.726562 224.683594 524.664062 219.5625 520.007812 221.214844" fill="#7f7e7c"/></g><g id="change1_77"><path d="M 270.664062 254.429688 C 269.214844 253.542969 268.042969 252.257812 267.070312 250.863281 C 265.066406 247.988281 263.566406 245.75 260.066406 244.652344 C 257.394531 243.8125 254.589844 244.398438 251.84375 244.105469 C 249.019531 243.804688 248.238281 243.347656 245.960938 245.84375 C 244.691406 247.238281 243.910156 249.394531 242.949219 251.007812 C 241.867188 252.828125 240.335938 255.050781 239.742188 257.082031 C 238.671875 260.757812 242.050781 264.085938 242.640625 267.59375 C 242.925781 269.285156 242.847656 271.027344 242.207031 272.632812 C 240.757812 276.269531 236.335938 277.929688 237.59375 282.542969 C 238.144531 284.554688 239.59375 286.21875 241.285156 287.433594 C 244.5625 289.777344 249.121094 290.558594 252.699219 288.703125 C 255.15625 287.425781 257.480469 285.296875 259.355469 283.277344 C 260.871094 281.644531 262.0625 279.515625 261.890625 277.292969 C 261.714844 275.070312 259.757812 272.921875 257.539062 273.167969 C 259.023438 272.207031 261.023438 272.574219 262.597656 273.382812 C 264.171875 274.191406 265.53125 275.386719 267.144531 276.117188 C 272.722656 278.65625 277.910156 276.960938 282.75 273.703125 C 283.582031 273.144531 284.429688 272.570312 285.042969 271.773438 C 285.597656 271.054688 285.929688 270.191406 286.226562 269.328125 C 286.769531 267.730469 287.101562 266.0625 287.019531 264.414062 C 286.960938 263.277344 286.710938 262.148438 286.195312 261.058594 C 283.355469 255.03125 275.347656 257.300781 270.664062 254.429688" fill="#7f7e7c"/></g><g id="change1_78"><path d="M 221.203125 224.742188 C 217.285156 227.5625 218.023438 235.28125 222.847656 241.984375 C 227.671875 248.6875 234.757812 251.835938 238.675781 249.015625 C 242.589844 246.195312 241.855469 238.476562 237.027344 231.773438 C 232.203125 225.070312 225.117188 221.925781 221.203125 224.742188" fill="#7f7e7c"/></g><g id="change1_79"><path d="M 215.484375 251.242188 C 211.570312 254.0625 212.304688 261.78125 217.128906 268.484375 C 221.953125 275.1875 229.039062 278.335938 232.957031 275.515625 C 236.871094 272.695312 236.136719 264.976562 231.3125 258.273438 C 226.488281 251.570312 219.402344 248.425781 215.484375 251.242188" fill="#7f7e7c"/></g><g id="change1_80"><path d="M 244.375 210.574219 C 239.71875 212.226562 238.238281 220.023438 241.066406 227.992188 C 243.894531 235.960938 249.957031 241.078125 254.613281 239.429688 C 259.269531 237.777344 260.75 229.976562 257.925781 222.011719 C 255.097656 214.042969 249.03125 208.921875 244.375 210.574219" fill="#7f7e7c"/></g><g id="change1_81"><path d="M 270.007812 221.214844 C 265.351562 222.867188 263.871094 230.664062 266.695312 238.632812 C 269.523438 246.601562 275.589844 251.71875 280.246094 250.066406 C 284.902344 248.414062 286.382812 240.617188 283.554688 232.648438 C 280.726562 224.683594 274.664062 219.5625 270.007812 221.214844" fill="#7f7e7c"/></g><g id="change1_82"><path d="M 9.355469 283.277344 C 10.871094 281.644531 12.0625 279.515625 11.890625 277.292969 C 11.714844 275.070312 9.757812 272.921875 7.539062 273.167969 C 9.023438 272.207031 11.023438 272.574219 12.597656 273.382812 C 14.171875 274.191406 15.53125 275.386719 17.144531 276.117188 C 22.722656 278.65625 27.910156 276.960938 32.75 273.703125 C 33.582031 273.144531 34.429688 272.570312 35.042969 271.773438 C 35.597656 271.054688 35.929688 270.191406 36.226562 269.328125 C 36.773438 267.730469 37.101562 266.0625 37.019531 264.414062 C 36.960938 263.277344 36.707031 262.148438 36.195312 261.058594 C 33.355469 255.03125 25.347656 257.300781 20.664062 254.429688 C 19.214844 253.542969 18.042969 252.257812 17.070312 250.863281 C 15.066406 247.988281 13.566406 245.75 10.066406 244.652344 C 7.394531 243.8125 4.589844 244.398438 1.84375 244.105469 C 1.113281 244.027344 0.519531 243.941406 0 243.898438 L 0 289.589844 C 0.933594 289.433594 1.84375 289.144531 2.699219 288.703125 C 5.15625 287.425781 7.480469 285.296875 9.355469 283.277344" fill="#7f7e7c"/></g><g id="change1_83"><path d="M 4.613281 239.429688 C 9.269531 237.777344 10.75 229.976562 7.925781 222.011719 C 6.164062 217.050781 3.148438 213.195312 0 211.390625 L 0 239.121094 C 1.582031 239.800781 3.164062 239.941406 4.613281 239.429688" fill="#7f7e7c"/></g><g id="change1_84"><path d="M 20.007812 221.214844 C 15.351562 222.867188 13.871094 230.664062 16.695312 238.632812 C 19.523438 246.601562 25.589844 251.71875 30.246094 250.066406 C 34.902344 248.414062 36.382812 240.617188 33.554688 232.648438 C 30.726562 224.683594 24.664062 219.5625 20.007812 221.214844" fill="#7f7e7c"/></g><g id="change1_85"><path d="M 993.5 0 C 993.320312 0.347656 993.140625 0.691406 992.949219 1.007812 C 991.867188 2.828125 990.335938 5.050781 989.742188 7.082031 C 988.671875 10.757812 992.050781 14.085938 992.640625 17.59375 C 992.925781 19.285156 992.847656 21.023438 992.207031 22.632812 C 990.757812 26.269531 986.335938 27.929688 987.59375 32.542969 C 988.144531 34.554688 989.59375 36.21875 991.285156 37.433594 C 993.777344 39.21875 997.019531 40.09375 1000 39.589844 L 1000 0 L 993.5 0" fill="#7f7e7c"/></g><g id="change1_86"><path d="M 985.988281 0 L 984.484375 0 C 985 0.0507812 985.503906 0.0507812 985.988281 0" fill="#7f7e7c"/></g><g id="change1_87"><path d="M 965.484375 1.242188 C 961.570312 4.0625 962.304688 11.78125 967.128906 18.484375 C 971.953125 25.1875 979.039062 28.335938 982.957031 25.515625 C 986.871094 22.695312 986.136719 14.976562 981.3125 8.273438 C 976.488281 1.570312 969.402344 -1.578125 965.484375 1.242188" fill="#7f7e7c"/></g><g id="change1_88"><path d="M 739.742188 7.082031 C 738.671875 10.757812 742.050781 14.085938 742.640625 17.59375 C 742.925781 19.285156 742.847656 21.023438 742.207031 22.632812 C 740.757812 26.269531 736.335938 27.929688 737.59375 32.542969 C 738.144531 34.554688 739.59375 36.21875 741.285156 37.433594 C 744.5625 39.777344 749.121094 40.558594 752.699219 38.703125 C 755.15625 37.425781 757.480469 35.296875 759.355469 33.277344 C 760.871094 31.644531 762.0625 29.515625 761.890625 27.292969 C 761.714844 25.070312 759.757812 22.921875 757.539062 23.167969 C 759.023438 22.207031 761.023438 22.574219 762.597656 23.382812 C 764.171875 24.191406 765.53125 25.386719 767.144531 26.117188 C 772.722656 28.65625 777.910156 26.960938 782.75 23.703125 C 783.582031 23.144531 784.429688 22.570312 785.042969 21.773438 C 785.597656 21.054688 785.929688 20.191406 786.226562 19.328125 C 786.769531 17.730469 787.101562 16.0625 787.019531 14.414062 C 786.960938 13.277344 786.710938 12.148438 786.195312 11.058594 C 783.355469 5.03125 775.347656 7.300781 770.664062 4.429688 C 769.214844 3.542969 768.042969 2.257812 767.070312 0.863281 C 766.863281 0.566406 766.664062 0.28125 766.464844 0 L 743.5 0 C 743.320312 0.347656 743.140625 0.691406 742.949219 1.007812 C 741.867188 2.828125 740.335938 5.050781 739.742188 7.082031" fill="#7f7e7c"/></g><g id="change1_89"><path d="M 735.988281 0 L 734.484375 0 C 735 0.0507812 735.503906 0.0507812 735.988281 0" fill="#7f7e7c"/></g><g id="change1_90"><path d="M 715.484375 1.242188 C 711.570312 4.0625 712.304688 11.78125 717.128906 18.484375 C 721.953125 25.1875 729.039062 28.335938 732.957031 25.515625 C 736.871094 22.695312 736.136719 14.976562 731.3125 8.273438 C 726.488281 1.570312 719.402344 -1.578125 715.484375 1.242188" fill="#7f7e7c"/></g><g id="change1_91"><path d="M 780.246094 0.0664062 C 780.296875 0.0507812 780.34375 0.0195312 780.394531 0 L 776.289062 0 C 777.652344 0.453125 779 0.511719 780.246094 0.0664062" fill="#7f7e7c"/></g><g id="change1_92"><path d="M 489.742188 7.082031 C 488.671875 10.757812 492.050781 14.085938 492.640625 17.59375 C 492.925781 19.285156 492.847656 21.023438 492.207031 22.632812 C 490.757812 26.269531 486.335938 27.929688 487.59375 32.542969 C 488.144531 34.554688 489.59375 36.21875 491.285156 37.433594 C 494.5625 39.777344 499.121094 40.558594 502.699219 38.703125 C 505.15625 37.425781 507.480469 35.296875 509.355469 33.277344 C 510.871094 31.644531 512.0625 29.515625 511.890625 27.292969 C 511.714844 25.070312 509.757812 22.921875 507.539062 23.167969 C 509.023438 22.207031 511.023438 22.574219 512.597656 23.382812 C 514.171875 24.191406 515.53125 25.386719 517.144531 26.117188 C 522.722656 28.65625 527.910156 26.960938 532.75 23.703125 C 533.582031 23.144531 534.429688 22.570312 535.042969 21.773438 C 535.597656 21.054688 535.929688 20.191406 536.226562 19.328125 C 536.769531 17.730469 537.101562 16.0625 537.019531 14.414062 C 536.960938 13.277344 536.710938 12.148438 536.195312 11.058594 C 533.355469 5.03125 525.347656 7.300781 520.664062 4.429688 C 519.214844 3.542969 518.042969 2.257812 517.070312 0.863281 C 516.863281 0.566406 516.664062 0.28125 516.464844 0 L 493.5 0 C 493.320312 0.347656 493.140625 0.691406 492.949219 1.007812 C 491.867188 2.828125 490.335938 5.050781 489.742188 7.082031" fill="#7f7e7c"/></g><g id="change1_93"><path d="M 485.988281 0 L 484.484375 0 C 485 0.0507812 485.503906 0.0507812 485.988281 0" fill="#7f7e7c"/></g><g id="change1_94"><path d="M 465.484375 1.242188 C 461.570312 4.0625 462.304688 11.78125 467.128906 18.484375 C 471.953125 25.1875 479.039062 28.335938 482.957031 25.515625 C 486.871094 22.695312 486.136719 14.976562 481.3125 8.273438 C 476.488281 1.570312 469.402344 -1.578125 465.484375 1.242188" fill="#7f7e7c"/></g><g id="change1_95"><path d="M 530.246094 0.0664062 C 530.296875 0.0507812 530.34375 0.0195312 530.394531 0 L 526.289062 0 C 527.652344 0.453125 529 0.511719 530.246094 0.0664062" fill="#7f7e7c"/></g><g id="change1_96"><path d="M 239.742188 7.082031 C 238.671875 10.757812 242.050781 14.085938 242.640625 17.59375 C 242.925781 19.285156 242.847656 21.023438 242.207031 22.632812 C 240.757812 26.269531 236.335938 27.929688 237.59375 32.542969 C 238.144531 34.554688 239.59375 36.21875 241.285156 37.433594 C 244.5625 39.777344 249.121094 40.558594 252.699219 38.703125 C 255.15625 37.425781 257.480469 35.296875 259.355469 33.277344 C 260.871094 31.644531 262.0625 29.515625 261.890625 27.292969 C 261.714844 25.070312 259.757812 22.921875 257.539062 23.167969 C 259.023438 22.207031 261.023438 22.574219 262.597656 23.382812 C 264.171875 24.191406 265.53125 25.386719 267.144531 26.117188 C 272.722656 28.65625 277.910156 26.960938 282.75 23.703125 C 283.582031 23.144531 284.429688 22.570312 285.042969 21.773438 C 285.597656 21.054688 285.929688 20.191406 286.226562 19.328125 C 286.769531 17.730469 287.101562 16.0625 287.019531 14.414062 C 286.960938 13.277344 286.710938 12.148438 286.195312 11.058594 C 283.355469 5.03125 275.347656 7.300781 270.664062 4.429688 C 269.214844 3.542969 268.042969 2.257812 267.070312 0.863281 C 266.863281 0.566406 266.664062 0.28125 266.464844 0 L 243.5 0 C 243.320312 0.347656 243.140625 0.691406 242.949219 1.007812 C 241.867188 2.828125 240.335938 5.050781 239.742188 7.082031" fill="#7f7e7c"/></g><g id="change1_97"><path d="M 235.988281 0 L 234.484375 0 C 235 0.0507812 235.503906 0.0507812 235.988281 0" fill="#7f7e7c"/></g><g id="change1_98"><path d="M 215.484375 1.242188 C 211.570312 4.0625 212.304688 11.78125 217.128906 18.484375 C 221.953125 25.1875 229.039062 28.335938 232.957031 25.515625 C 236.871094 22.695312 236.136719 14.976562 231.3125 8.273438 C 226.488281 1.570312 219.402344 -1.578125 215.484375 1.242188" fill="#7f7e7c"/></g><g id="change1_99"><path d="M 280.246094 0.0664062 C 280.296875 0.0507812 280.34375 0.0195312 280.394531 0 L 276.289062 0 C 277.652344 0.453125 279 0.511719 280.246094 0.0664062" fill="#7f7e7c"/></g><g id="change1_100"><path d="M 9.355469 33.277344 C 10.871094 31.644531 12.0625 29.515625 11.890625 27.292969 C 11.714844 25.070312 9.757812 22.921875 7.539062 23.167969 C 9.023438 22.207031 11.023438 22.574219 12.597656 23.382812 C 14.171875 24.191406 15.53125 25.386719 17.144531 26.117188 C 22.722656 28.65625 27.910156 26.960938 32.75 23.703125 C 33.582031 23.144531 34.429688 22.570312 35.042969 21.773438 C 35.597656 21.054688 35.929688 20.191406 36.226562 19.328125 C 36.773438 17.730469 37.101562 16.0625 37.019531 14.414062 C 36.960938 13.277344 36.707031 12.148438 36.195312 11.058594 C 33.355469 5.03125 25.347656 7.300781 20.664062 4.429688 C 19.214844 3.542969 18.042969 2.257812 17.070312 0.863281 C 16.863281 0.566406 16.664062 0.28125 16.464844 0 L 0 0 L 0 39.589844 C 0.933594 39.433594 1.84375 39.144531 2.699219 38.703125 C 5.15625 37.425781 7.480469 35.296875 9.355469 33.277344" fill="#7f7e7c"/></g><g id="change1_101"><path d="M 30.246094 0.0664062 C 30.296875 0.0507812 30.34375 0.0195312 30.394531 0 L 26.289062 0 C 27.652344 0.453125 29 0.511719 30.246094 0.0664062" fill="#7f7e7c"/></g><g id="change2_1"><path d="M 882.359375 892.59375 C 882.949219 889.085938 886.328125 885.757812 885.257812 882.082031 C 884.664062 880.050781 883.132812 877.828125 882.050781 876.007812 C 881.089844 874.394531 880.308594 872.238281 879.039062 870.84375 C 876.761719 868.347656 875.980469 868.804688 873.15625 869.105469 C 870.410156 869.398438 867.605469 868.8125 864.933594 869.652344 C 861.433594 870.75 859.933594 872.988281 857.929688 875.863281 C 856.957031 877.257812 855.785156 878.542969 854.335938 879.429688 C 849.652344 882.300781 841.644531 880.03125 838.804688 886.058594 C 838.289062 887.148438 838.039062 888.277344 837.980469 889.414062 C 837.898438 891.0625 838.230469 892.730469 838.773438 894.328125 C 839.070312 895.191406 839.402344 896.054688 839.957031 896.773438 C 840.570312 897.570312 841.417969 898.144531 842.25 898.703125 C 847.089844 901.960938 852.277344 903.65625 857.855469 901.117188 C 859.46875 900.386719 860.828125 899.191406 862.402344 898.382812 C 863.976562 897.574219 865.976562 897.207031 867.460938 898.167969 C 865.242188 897.921875 863.285156 900.070312 863.109375 902.292969 C 862.9375 904.515625 864.128906 906.644531 865.644531 908.277344 C 867.519531 910.296875 869.84375 912.425781 872.300781 913.703125 C 875.878906 915.558594 880.4375 914.777344 883.714844 912.433594 C 885.40625 911.21875 886.855469 909.550781 887.40625 907.542969 C 888.664062 902.929688 884.242188 901.269531 882.792969 897.632812 C 882.152344 896.027344 882.074219 894.285156 882.359375 892.59375" fill="#4c4c4c"/></g><g id="change2_2"><path d="M 903.796875 849.742188 C 899.882812 846.925781 892.796875 850.070312 887.972656 856.773438 C 883.144531 863.476562 882.410156 871.195312 886.324219 874.015625 C 890.242188 876.835938 897.328125 873.6875 902.152344 866.984375 C 906.976562 860.28125 907.714844 852.5625 903.796875 849.742188" fill="#4c4c4c"/></g><g id="change2_3"><path d="M 909.515625 876.242188 C 905.597656 873.425781 898.511719 876.570312 893.6875 883.273438 C 888.863281 889.976562 888.128906 897.695312 892.042969 900.515625 C 895.960938 903.335938 903.046875 900.1875 907.871094 893.484375 C 912.695312 886.78125 913.429688 879.0625 909.515625 876.242188" fill="#4c4c4c"/></g><g id="change2_4"><path d="M 880.625 835.574219 C 875.96875 833.921875 869.902344 839.042969 867.074219 847.011719 C 864.25 854.976562 865.730469 862.777344 870.386719 864.429688 C 875.042969 866.078125 881.105469 860.960938 883.933594 852.992188 C 886.761719 845.023438 885.28125 837.226562 880.625 835.574219" fill="#4c4c4c"/></g><g id="change2_5"><path d="M 854.992188 846.214844 C 850.335938 844.5625 844.273438 849.683594 841.445312 857.648438 C 838.617188 865.617188 840.097656 873.414062 844.753906 875.066406 C 849.410156 876.71875 855.476562 871.601562 858.304688 863.632812 C 861.128906 855.664062 859.648438 847.867188 854.992188 846.214844" fill="#4c4c4c"/></g><g id="change2_6"><path d="M 632.359375 892.59375 C 632.949219 889.085938 636.328125 885.757812 635.257812 882.082031 C 634.664062 880.050781 633.132812 877.828125 632.050781 876.007812 C 631.089844 874.394531 630.308594 872.238281 629.039062 870.84375 C 626.761719 868.347656 625.980469 868.804688 623.15625 869.105469 C 620.410156 869.398438 617.605469 868.8125 614.933594 869.652344 C 611.433594 870.75 609.933594 872.988281 607.929688 875.863281 C 606.957031 877.257812 605.785156 878.542969 604.335938 879.429688 C 599.652344 882.300781 591.644531 880.03125 588.804688 886.058594 C 588.289062 887.148438 588.039062 888.277344 587.980469 889.414062 C 587.898438 891.0625 588.230469 892.730469 588.773438 894.328125 C 589.070312 895.191406 589.402344 896.054688 589.957031 896.773438 C 590.570312 897.570312 591.417969 898.144531 592.25 898.703125 C 597.089844 901.960938 602.277344 903.65625 607.855469 901.117188 C 609.46875 900.386719 610.828125 899.191406 612.402344 898.382812 C 613.976562 897.574219 615.976562 897.207031 617.460938 898.167969 C 615.242188 897.921875 613.285156 900.070312 613.109375 902.292969 C 612.9375 904.515625 614.128906 906.644531 615.644531 908.277344 C 617.519531 910.296875 619.84375 912.425781 622.300781 913.703125 C 625.878906 915.558594 630.4375 914.777344 633.714844 912.433594 C 635.40625 911.21875 636.855469 909.550781 637.40625 907.542969 C 638.664062 902.929688 634.242188 901.269531 632.792969 897.632812 C 632.152344 896.027344 632.074219 894.285156 632.359375 892.59375" fill="#4c4c4c"/></g><g id="change2_7"><path d="M 653.796875 849.742188 C 649.882812 846.925781 642.796875 850.070312 637.972656 856.773438 C 633.144531 863.476562 632.410156 871.195312 636.324219 874.015625 C 640.242188 876.835938 647.328125 873.6875 652.152344 866.984375 C 656.976562 860.28125 657.714844 852.5625 653.796875 849.742188" fill="#4c4c4c"/></g><g id="change2_8"><path d="M 659.515625 876.242188 C 655.597656 873.425781 648.511719 876.570312 643.6875 883.273438 C 638.863281 889.976562 638.128906 897.695312 642.042969 900.515625 C 645.960938 903.335938 653.046875 900.1875 657.871094 893.484375 C 662.695312 886.78125 663.429688 879.0625 659.515625 876.242188" fill="#4c4c4c"/></g><g id="change2_9"><path d="M 630.625 835.574219 C 625.96875 833.921875 619.902344 839.042969 617.074219 847.011719 C 614.25 854.976562 615.730469 862.777344 620.386719 864.429688 C 625.042969 866.078125 631.105469 860.960938 633.933594 852.992188 C 636.761719 845.023438 635.28125 837.226562 630.625 835.574219" fill="#4c4c4c"/></g><g id="change2_10"><path d="M 604.992188 846.214844 C 600.335938 844.5625 594.273438 849.683594 591.445312 857.648438 C 588.617188 865.617188 590.097656 873.414062 594.753906 875.066406 C 599.410156 876.71875 605.476562 871.601562 608.304688 863.632812 C 611.128906 855.664062 609.648438 847.867188 604.992188 846.214844" fill="#4c4c4c"/></g><g id="change2_11"><path d="M 382.359375 892.59375 C 382.949219 889.085938 386.328125 885.757812 385.257812 882.082031 C 384.664062 880.050781 383.132812 877.828125 382.050781 876.007812 C 381.089844 874.394531 380.308594 872.238281 379.039062 870.84375 C 376.761719 868.347656 375.980469 868.804688 373.15625 869.105469 C 370.410156 869.398438 367.605469 868.8125 364.933594 869.652344 C 361.433594 870.75 359.933594 872.988281 357.929688 875.863281 C 356.957031 877.257812 355.785156 878.542969 354.335938 879.429688 C 349.652344 882.300781 341.644531 880.03125 338.804688 886.058594 C 338.289062 887.148438 338.039062 888.277344 337.980469 889.414062 C 337.898438 891.0625 338.230469 892.730469 338.773438 894.328125 C 339.070312 895.191406 339.402344 896.054688 339.957031 896.773438 C 340.570312 897.570312 341.417969 898.144531 342.25 898.703125 C 347.089844 901.960938 352.277344 903.65625 357.855469 901.117188 C 359.46875 900.386719 360.828125 899.191406 362.402344 898.382812 C 363.976562 897.574219 365.976562 897.207031 367.460938 898.167969 C 365.242188 897.921875 363.285156 900.070312 363.109375 902.292969 C 362.9375 904.515625 364.128906 906.644531 365.644531 908.277344 C 367.519531 910.296875 369.84375 912.425781 372.300781 913.703125 C 375.878906 915.558594 380.4375 914.777344 383.714844 912.433594 C 385.40625 911.21875 386.855469 909.550781 387.40625 907.542969 C 388.664062 902.929688 384.242188 901.269531 382.792969 897.632812 C 382.152344 896.027344 382.074219 894.285156 382.359375 892.59375" fill="#4c4c4c"/></g><g id="change2_12"><path d="M 403.796875 849.742188 C 399.882812 846.925781 392.796875 850.070312 387.972656 856.773438 C 383.144531 863.476562 382.410156 871.195312 386.324219 874.015625 C 390.242188 876.835938 397.328125 873.6875 402.152344 866.984375 C 406.976562 860.28125 407.714844 852.5625 403.796875 849.742188" fill="#4c4c4c"/></g><g id="change2_13"><path d="M 409.515625 876.242188 C 405.597656 873.425781 398.511719 876.570312 393.6875 883.273438 C 388.863281 889.976562 388.128906 897.695312 392.042969 900.515625 C 395.960938 903.335938 403.046875 900.1875 407.871094 893.484375 C 412.695312 886.78125 413.429688 879.0625 409.515625 876.242188" fill="#4c4c4c"/></g><g id="change2_14"><path d="M 380.625 835.574219 C 375.96875 833.921875 369.902344 839.042969 367.074219 847.011719 C 364.25 854.976562 365.730469 862.777344 370.386719 864.429688 C 375.042969 866.078125 381.105469 860.960938 383.933594 852.992188 C 386.761719 845.023438 385.28125 837.226562 380.625 835.574219" fill="#4c4c4c"/></g><g id="change2_15"><path d="M 354.992188 846.214844 C 350.335938 844.5625 344.273438 849.683594 341.445312 857.648438 C 338.617188 865.617188 340.097656 873.414062 344.753906 875.066406 C 349.410156 876.71875 355.476562 871.601562 358.304688 863.632812 C 361.128906 855.664062 359.648438 847.867188 354.992188 846.214844" fill="#4c4c4c"/></g><g id="change2_16"><path d="M 132.359375 892.59375 C 132.949219 889.085938 136.328125 885.757812 135.257812 882.082031 C 134.664062 880.050781 133.132812 877.828125 132.050781 876.007812 C 131.089844 874.394531 130.308594 872.238281 129.039062 870.84375 C 126.761719 868.347656 125.980469 868.804688 123.15625 869.105469 C 120.410156 869.398438 117.605469 868.8125 114.933594 869.652344 C 111.433594 870.75 109.933594 872.988281 107.929688 875.863281 C 106.957031 877.257812 105.785156 878.542969 104.335938 879.429688 C 99.652344 882.300781 91.644531 880.03125 88.804688 886.058594 C 88.292969 887.148438 88.039062 888.277344 87.980469 889.414062 C 87.898438 891.0625 88.226562 892.730469 88.773438 894.328125 C 89.070312 895.191406 89.402344 896.054688 89.957031 896.773438 C 90.570312 897.570312 91.417969 898.144531 92.25 898.703125 C 97.089844 901.960938 102.277344 903.65625 107.855469 901.117188 C 109.46875 900.386719 110.828125 899.191406 112.402344 898.382812 C 113.976562 897.574219 115.976562 897.207031 117.460938 898.167969 C 115.242188 897.921875 113.285156 900.070312 113.109375 902.292969 C 112.9375 904.515625 114.128906 906.644531 115.644531 908.277344 C 117.519531 910.296875 119.84375 912.425781 122.300781 913.703125 C 125.878906 915.558594 130.4375 914.777344 133.714844 912.433594 C 135.40625 911.21875 136.855469 909.550781 137.40625 907.542969 C 138.664062 902.929688 134.242188 901.269531 132.792969 897.632812 C 132.152344 896.027344 132.074219 894.285156 132.359375 892.59375" fill="#4c4c4c"/></g><g id="change2_17"><path d="M 153.796875 849.742188 C 149.882812 846.925781 142.796875 850.070312 137.972656 856.773438 C 133.144531 863.476562 132.410156 871.195312 136.324219 874.015625 C 140.242188 876.835938 147.328125 873.6875 152.152344 866.984375 C 156.976562 860.28125 157.714844 852.5625 153.796875 849.742188" fill="#4c4c4c"/></g><g id="change2_18"><path d="M 159.515625 876.242188 C 155.597656 873.425781 148.511719 876.570312 143.6875 883.273438 C 138.863281 889.976562 138.128906 897.695312 142.042969 900.515625 C 145.960938 903.335938 153.046875 900.1875 157.871094 893.484375 C 162.695312 886.78125 163.429688 879.0625 159.515625 876.242188" fill="#4c4c4c"/></g><g id="change2_19"><path d="M 130.625 835.574219 C 125.96875 833.921875 119.902344 839.042969 117.074219 847.011719 C 114.25 854.976562 115.730469 862.777344 120.386719 864.429688 C 125.042969 866.078125 131.105469 860.960938 133.933594 852.992188 C 136.761719 845.023438 135.28125 837.226562 130.625 835.574219" fill="#4c4c4c"/></g><g id="change2_20"><path d="M 104.992188 846.214844 C 100.335938 844.5625 94.273438 849.683594 91.445312 857.648438 C 88.617188 865.617188 90.097656 873.414062 94.753906 875.066406 C 99.410156 876.71875 105.476562 871.601562 108.304688 863.632812 C 111.128906 855.664062 109.648438 847.867188 104.992188 846.214844" fill="#4c4c4c"/></g><g id="change2_21"><path d="M 882.359375 642.59375 C 882.949219 639.085938 886.328125 635.757812 885.257812 632.082031 C 884.664062 630.050781 883.132812 627.828125 882.050781 626.007812 C 881.089844 624.394531 880.308594 622.238281 879.039062 620.84375 C 876.761719 618.347656 875.980469 618.804688 873.15625 619.105469 C 870.410156 619.398438 867.605469 618.8125 864.933594 619.652344 C 861.433594 620.75 859.933594 622.988281 857.929688 625.863281 C 856.957031 627.257812 855.785156 628.542969 854.335938 629.429688 C 849.652344 632.300781 841.644531 630.03125 838.804688 636.058594 C 838.289062 637.148438 838.039062 638.277344 837.980469 639.414062 C 837.898438 641.0625 838.230469 642.730469 838.773438 644.328125 C 839.070312 645.191406 839.402344 646.054688 839.957031 646.773438 C 840.570312 647.570312 841.417969 648.144531 842.25 648.703125 C 847.089844 651.960938 852.277344 653.65625 857.855469 651.117188 C 859.46875 650.386719 860.828125 649.191406 862.402344 648.382812 C 863.976562 647.574219 865.976562 647.207031 867.460938 648.167969 C 865.242188 647.921875 863.285156 650.070312 863.109375 652.292969 C 862.9375 654.515625 864.128906 656.644531 865.644531 658.277344 C 867.519531 660.296875 869.84375 662.425781 872.300781 663.703125 C 875.878906 665.558594 880.4375 664.777344 883.714844 662.433594 C 885.40625 661.21875 886.855469 659.554688 887.40625 657.542969 C 888.664062 652.929688 884.242188 651.269531 882.792969 647.632812 C 882.152344 646.027344 882.074219 644.285156 882.359375 642.59375" fill="#4c4c4c"/></g><g id="change2_22"><path d="M 903.796875 599.742188 C 899.882812 596.925781 892.796875 600.070312 887.972656 606.773438 C 883.144531 613.476562 882.410156 621.195312 886.324219 624.015625 C 890.242188 626.835938 897.328125 623.6875 902.152344 616.984375 C 906.976562 610.28125 907.714844 602.5625 903.796875 599.742188" fill="#4c4c4c"/></g><g id="change2_23"><path d="M 909.515625 626.242188 C 905.597656 623.425781 898.511719 626.570312 893.6875 633.273438 C 888.863281 639.976562 888.128906 647.695312 892.042969 650.515625 C 895.960938 653.335938 903.046875 650.1875 907.871094 643.484375 C 912.695312 636.78125 913.429688 629.0625 909.515625 626.242188" fill="#4c4c4c"/></g><g id="change2_24"><path d="M 880.625 585.574219 C 875.96875 583.921875 869.902344 589.042969 867.074219 597.011719 C 864.25 604.976562 865.730469 612.777344 870.386719 614.429688 C 875.042969 616.078125 881.105469 610.960938 883.933594 602.992188 C 886.761719 595.023438 885.28125 587.226562 880.625 585.574219" fill="#4c4c4c"/></g><g id="change2_25"><path d="M 854.992188 596.214844 C 850.335938 594.5625 844.273438 599.683594 841.445312 607.648438 C 838.617188 615.617188 840.097656 623.414062 844.753906 625.066406 C 849.410156 626.71875 855.476562 621.601562 858.304688 613.632812 C 861.128906 605.664062 859.648438 597.867188 854.992188 596.214844" fill="#4c4c4c"/></g><g id="change2_26"><path d="M 632.359375 642.59375 C 632.949219 639.085938 636.328125 635.757812 635.257812 632.082031 C 634.664062 630.050781 633.132812 627.828125 632.050781 626.007812 C 631.089844 624.394531 630.308594 622.238281 629.039062 620.84375 C 626.761719 618.347656 625.980469 618.804688 623.15625 619.105469 C 620.410156 619.398438 617.605469 618.8125 614.933594 619.652344 C 611.433594 620.75 609.933594 622.988281 607.929688 625.863281 C 606.957031 627.257812 605.785156 628.542969 604.335938 629.429688 C 599.652344 632.300781 591.644531 630.03125 588.804688 636.058594 C 588.289062 637.148438 588.039062 638.277344 587.980469 639.414062 C 587.898438 641.0625 588.230469 642.730469 588.773438 644.328125 C 589.070312 645.191406 589.402344 646.054688 589.957031 646.773438 C 590.570312 647.570312 591.417969 648.144531 592.25 648.703125 C 597.089844 651.960938 602.277344 653.65625 607.855469 651.117188 C 609.46875 650.386719 610.828125 649.191406 612.402344 648.382812 C 613.976562 647.574219 615.976562 647.207031 617.460938 648.167969 C 615.242188 647.921875 613.285156 650.070312 613.109375 652.292969 C 612.9375 654.515625 614.128906 656.644531 615.644531 658.277344 C 617.519531 660.296875 619.84375 662.425781 622.300781 663.703125 C 625.878906 665.558594 630.4375 664.777344 633.714844 662.433594 C 635.40625 661.21875 636.855469 659.554688 637.40625 657.542969 C 638.664062 652.929688 634.242188 651.269531 632.792969 647.632812 C 632.152344 646.027344 632.074219 644.285156 632.359375 642.59375" fill="#4c4c4c"/></g><g id="change2_27"><path d="M 653.796875 599.742188 C 649.882812 596.925781 642.796875 600.070312 637.972656 606.773438 C 633.144531 613.476562 632.410156 621.195312 636.324219 624.015625 C 640.242188 626.835938 647.328125 623.6875 652.152344 616.984375 C 656.976562 610.28125 657.714844 602.5625 653.796875 599.742188" fill="#4c4c4c"/></g><g id="change2_28"><path d="M 659.515625 626.242188 C 655.597656 623.425781 648.511719 626.570312 643.6875 633.273438 C 638.863281 639.976562 638.128906 647.695312 642.042969 650.515625 C 645.960938 653.335938 653.046875 650.1875 657.871094 643.484375 C 662.695312 636.78125 663.429688 629.0625 659.515625 626.242188" fill="#4c4c4c"/></g><g id="change2_29"><path d="M 630.625 585.574219 C 625.96875 583.921875 619.902344 589.042969 617.074219 597.011719 C 614.25 604.976562 615.730469 612.777344 620.386719 614.429688 C 625.042969 616.078125 631.105469 610.960938 633.933594 602.992188 C 636.761719 595.023438 635.28125 587.226562 630.625 585.574219" fill="#4c4c4c"/></g><g id="change2_30"><path d="M 604.992188 596.214844 C 600.335938 594.5625 594.273438 599.683594 591.445312 607.648438 C 588.617188 615.617188 590.097656 623.414062 594.753906 625.066406 C 599.410156 626.71875 605.476562 621.601562 608.304688 613.632812 C 611.128906 605.664062 609.648438 597.867188 604.992188 596.214844" fill="#4c4c4c"/></g><g id="change2_31"><path d="M 382.359375 642.59375 C 382.949219 639.085938 386.328125 635.757812 385.257812 632.082031 C 384.664062 630.050781 383.132812 627.828125 382.050781 626.007812 C 381.089844 624.394531 380.308594 622.238281 379.039062 620.84375 C 376.761719 618.347656 375.980469 618.804688 373.15625 619.105469 C 370.410156 619.398438 367.605469 618.8125 364.933594 619.652344 C 361.433594 620.75 359.933594 622.988281 357.929688 625.863281 C 356.957031 627.257812 355.785156 628.542969 354.335938 629.429688 C 349.652344 632.300781 341.644531 630.03125 338.804688 636.058594 C 338.289062 637.148438 338.039062 638.277344 337.980469 639.414062 C 337.898438 641.0625 338.230469 642.730469 338.773438 644.328125 C 339.070312 645.191406 339.402344 646.054688 339.957031 646.773438 C 340.570312 647.570312 341.417969 648.144531 342.25 648.703125 C 347.089844 651.960938 352.277344 653.65625 357.855469 651.117188 C 359.46875 650.386719 360.828125 649.191406 362.402344 648.382812 C 363.976562 647.574219 365.976562 647.207031 367.460938 648.167969 C 365.242188 647.921875 363.285156 650.070312 363.109375 652.292969 C 362.9375 654.515625 364.128906 656.644531 365.644531 658.277344 C 367.519531 660.296875 369.84375 662.425781 372.300781 663.703125 C 375.878906 665.558594 380.4375 664.777344 383.714844 662.433594 C 385.40625 661.21875 386.855469 659.554688 387.40625 657.542969 C 388.664062 652.929688 384.242188 651.269531 382.792969 647.632812 C 382.152344 646.027344 382.074219 644.285156 382.359375 642.59375" fill="#4c4c4c"/></g><g id="change2_32"><path d="M 403.796875 599.742188 C 399.882812 596.925781 392.796875 600.070312 387.972656 606.773438 C 383.144531 613.476562 382.410156 621.195312 386.324219 624.015625 C 390.242188 626.835938 397.328125 623.6875 402.152344 616.984375 C 406.976562 610.28125 407.714844 602.5625 403.796875 599.742188" fill="#4c4c4c"/></g><g id="change2_33"><path d="M 409.515625 626.242188 C 405.597656 623.425781 398.511719 626.570312 393.6875 633.273438 C 388.863281 639.976562 388.128906 647.695312 392.042969 650.515625 C 395.960938 653.335938 403.046875 650.1875 407.871094 643.484375 C 412.695312 636.78125 413.429688 629.0625 409.515625 626.242188" fill="#4c4c4c"/></g><g id="change2_34"><path d="M 380.625 585.574219 C 375.96875 583.921875 369.902344 589.042969 367.074219 597.011719 C 364.25 604.976562 365.730469 612.777344 370.386719 614.429688 C 375.042969 616.078125 381.105469 610.960938 383.933594 602.992188 C 386.761719 595.023438 385.28125 587.226562 380.625 585.574219" fill="#4c4c4c"/></g><g id="change2_35"><path d="M 354.992188 596.214844 C 350.335938 594.5625 344.273438 599.683594 341.445312 607.648438 C 338.617188 615.617188 340.097656 623.414062 344.753906 625.066406 C 349.410156 626.71875 355.476562 621.601562 358.304688 613.632812 C 361.128906 605.664062 359.648438 597.867188 354.992188 596.214844" fill="#4c4c4c"/></g><g id="change2_36"><path d="M 132.359375 642.59375 C 132.949219 639.085938 136.328125 635.757812 135.257812 632.082031 C 134.664062 630.050781 133.132812 627.828125 132.050781 626.007812 C 131.089844 624.394531 130.308594 622.238281 129.039062 620.84375 C 126.761719 618.347656 125.980469 618.804688 123.15625 619.105469 C 120.410156 619.398438 117.605469 618.8125 114.933594 619.652344 C 111.433594 620.75 109.933594 622.988281 107.929688 625.863281 C 106.957031 627.257812 105.785156 628.542969 104.335938 629.429688 C 99.652344 632.300781 91.644531 630.03125 88.804688 636.058594 C 88.292969 637.148438 88.039062 638.277344 87.980469 639.414062 C 87.898438 641.0625 88.226562 642.730469 88.773438 644.328125 C 89.070312 645.191406 89.402344 646.054688 89.957031 646.773438 C 90.570312 647.570312 91.417969 648.144531 92.25 648.703125 C 97.089844 651.960938 102.277344 653.65625 107.855469 651.117188 C 109.46875 650.386719 110.828125 649.191406 112.402344 648.382812 C 113.976562 647.574219 115.976562 647.207031 117.460938 648.167969 C 115.242188 647.921875 113.285156 650.070312 113.109375 652.292969 C 112.9375 654.515625 114.128906 656.644531 115.644531 658.277344 C 117.519531 660.296875 119.84375 662.425781 122.300781 663.703125 C 125.878906 665.558594 130.4375 664.777344 133.714844 662.433594 C 135.40625 661.21875 136.855469 659.554688 137.40625 657.542969 C 138.664062 652.929688 134.242188 651.269531 132.792969 647.632812 C 132.152344 646.027344 132.074219 644.285156 132.359375 642.59375" fill="#4c4c4c"/></g><g id="change2_37"><path d="M 153.796875 599.742188 C 149.882812 596.925781 142.796875 600.070312 137.972656 606.773438 C 133.144531 613.476562 132.410156 621.195312 136.324219 624.015625 C 140.242188 626.835938 147.328125 623.6875 152.152344 616.984375 C 156.976562 610.28125 157.714844 602.5625 153.796875 599.742188" fill="#4c4c4c"/></g><g id="change2_38"><path d="M 159.515625 626.242188 C 155.597656 623.425781 148.511719 626.570312 143.6875 633.273438 C 138.863281 639.976562 138.128906 647.695312 142.042969 650.515625 C 145.960938 653.335938 153.046875 650.1875 157.871094 643.484375 C 162.695312 636.78125 163.429688 629.0625 159.515625 626.242188" fill="#4c4c4c"/></g><g id="change2_39"><path d="M 130.625 585.574219 C 125.96875 583.921875 119.902344 589.042969 117.074219 597.011719 C 114.25 604.976562 115.730469 612.777344 120.386719 614.429688 C 125.042969 616.078125 131.105469 610.960938 133.933594 602.992188 C 136.761719 595.023438 135.28125 587.226562 130.625 585.574219" fill="#4c4c4c"/></g><g id="change2_40"><path d="M 104.992188 596.214844 C 100.335938 594.5625 94.273438 599.683594 91.445312 607.648438 C 88.617188 615.617188 90.097656 623.414062 94.753906 625.066406 C 99.410156 626.71875 105.476562 621.601562 108.304688 613.632812 C 111.128906 605.664062 109.648438 597.867188 104.992188 596.214844" fill="#4c4c4c"/></g><g id="change2_41"><path d="M 882.359375 392.59375 C 882.949219 389.085938 886.328125 385.757812 885.257812 382.082031 C 884.664062 380.050781 883.132812 377.828125 882.050781 376.007812 C 881.089844 374.394531 880.308594 372.238281 879.039062 370.84375 C 876.761719 368.347656 875.980469 368.804688 873.15625 369.105469 C 870.410156 369.398438 867.605469 368.8125 864.933594 369.652344 C 861.433594 370.75 859.933594 372.988281 857.929688 375.863281 C 856.957031 377.257812 855.785156 378.542969 854.335938 379.429688 C 849.652344 382.300781 841.644531 380.03125 838.804688 386.058594 C 838.289062 387.148438 838.039062 388.277344 837.980469 389.414062 C 837.898438 391.0625 838.230469 392.730469 838.773438 394.328125 C 839.070312 395.191406 839.402344 396.054688 839.957031 396.773438 C 840.570312 397.570312 841.417969 398.144531 842.25 398.703125 C 847.089844 401.960938 852.277344 403.65625 857.855469 401.117188 C 859.46875 400.386719 860.828125 399.191406 862.402344 398.382812 C 863.976562 397.574219 865.976562 397.207031 867.460938 398.167969 C 865.242188 397.921875 863.285156 400.070312 863.109375 402.292969 C 862.9375 404.515625 864.128906 406.644531 865.644531 408.277344 C 867.519531 410.296875 869.84375 412.425781 872.300781 413.703125 C 875.878906 415.558594 880.4375 414.777344 883.714844 412.433594 C 885.40625 411.21875 886.855469 409.554688 887.40625 407.542969 C 888.664062 402.929688 884.242188 401.269531 882.792969 397.632812 C 882.152344 396.027344 882.074219 394.285156 882.359375 392.59375" fill="#4c4c4c"/></g><g id="change2_42"><path d="M 903.796875 349.742188 C 899.882812 346.925781 892.796875 350.070312 887.972656 356.773438 C 883.144531 363.476562 882.410156 371.195312 886.324219 374.015625 C 890.242188 376.835938 897.328125 373.6875 902.152344 366.984375 C 906.976562 360.28125 907.714844 352.5625 903.796875 349.742188" fill="#4c4c4c"/></g><g id="change2_43"><path d="M 909.515625 376.242188 C 905.597656 373.425781 898.511719 376.570312 893.6875 383.273438 C 888.863281 389.976562 888.128906 397.695312 892.042969 400.515625 C 895.960938 403.335938 903.046875 400.1875 907.871094 393.484375 C 912.695312 386.78125 913.429688 379.0625 909.515625 376.242188" fill="#4c4c4c"/></g><g id="change2_44"><path d="M 880.625 335.574219 C 875.96875 333.921875 869.902344 339.042969 867.074219 347.011719 C 864.25 354.976562 865.730469 362.777344 870.386719 364.429688 C 875.042969 366.078125 881.105469 360.960938 883.933594 352.992188 C 886.761719 345.023438 885.28125 337.226562 880.625 335.574219" fill="#4c4c4c"/></g><g id="change2_45"><path d="M 854.992188 346.214844 C 850.335938 344.5625 844.273438 349.683594 841.445312 357.648438 C 838.617188 365.617188 840.097656 373.414062 844.753906 375.066406 C 849.410156 376.71875 855.476562 371.601562 858.304688 363.632812 C 861.128906 355.664062 859.648438 347.867188 854.992188 346.214844" fill="#4c4c4c"/></g><g id="change2_46"><path d="M 632.359375 392.59375 C 632.949219 389.085938 636.328125 385.757812 635.257812 382.082031 C 634.664062 380.050781 633.132812 377.828125 632.050781 376.007812 C 631.089844 374.394531 630.308594 372.238281 629.039062 370.84375 C 626.761719 368.347656 625.980469 368.804688 623.15625 369.105469 C 620.410156 369.398438 617.605469 368.8125 614.933594 369.652344 C 611.433594 370.75 609.933594 372.988281 607.929688 375.863281 C 606.957031 377.257812 605.785156 378.542969 604.335938 379.429688 C 599.652344 382.300781 591.644531 380.03125 588.804688 386.058594 C 588.289062 387.148438 588.039062 388.277344 587.980469 389.414062 C 587.898438 391.0625 588.230469 392.730469 588.773438 394.328125 C 589.070312 395.191406 589.402344 396.054688 589.957031 396.773438 C 590.570312 397.570312 591.417969 398.144531 592.25 398.703125 C 597.089844 401.960938 602.277344 403.65625 607.855469 401.117188 C 609.46875 400.386719 610.828125 399.191406 612.402344 398.382812 C 613.976562 397.574219 615.976562 397.207031 617.460938 398.167969 C 615.242188 397.921875 613.285156 400.070312 613.109375 402.292969 C 612.9375 404.515625 614.128906 406.644531 615.644531 408.277344 C 617.519531 410.296875 619.84375 412.425781 622.300781 413.703125 C 625.878906 415.558594 630.4375 414.777344 633.714844 412.433594 C 635.40625 411.21875 636.855469 409.554688 637.40625 407.542969 C 638.664062 402.929688 634.242188 401.269531 632.792969 397.632812 C 632.152344 396.027344 632.074219 394.285156 632.359375 392.59375" fill="#4c4c4c"/></g><g id="change2_47"><path d="M 653.796875 349.742188 C 649.882812 346.925781 642.796875 350.070312 637.972656 356.773438 C 633.144531 363.476562 632.410156 371.195312 636.324219 374.015625 C 640.242188 376.835938 647.328125 373.6875 652.152344 366.984375 C 656.976562 360.28125 657.714844 352.5625 653.796875 349.742188" fill="#4c4c4c"/></g><g id="change2_48"><path d="M 659.515625 376.242188 C 655.597656 373.425781 648.511719 376.570312 643.6875 383.273438 C 638.863281 389.976562 638.128906 397.695312 642.042969 400.515625 C 645.960938 403.335938 653.046875 400.1875 657.871094 393.484375 C 662.695312 386.78125 663.429688 379.0625 659.515625 376.242188" fill="#4c4c4c"/></g><g id="change2_49"><path d="M 630.625 335.574219 C 625.96875 333.921875 619.902344 339.042969 617.074219 347.011719 C 614.25 354.976562 615.730469 362.777344 620.386719 364.429688 C 625.042969 366.078125 631.105469 360.960938 633.933594 352.992188 C 636.761719 345.023438 635.28125 337.226562 630.625 335.574219" fill="#4c4c4c"/></g><g id="change2_50"><path d="M 604.992188 346.214844 C 600.335938 344.5625 594.273438 349.683594 591.445312 357.648438 C 588.617188 365.617188 590.097656 373.414062 594.753906 375.066406 C 599.410156 376.71875 605.476562 371.601562 608.304688 363.632812 C 611.128906 355.664062 609.648438 347.867188 604.992188 346.214844" fill="#4c4c4c"/></g><g id="change2_51"><path d="M 382.359375 392.59375 C 382.949219 389.085938 386.328125 385.757812 385.257812 382.082031 C 384.664062 380.050781 383.132812 377.828125 382.050781 376.007812 C 381.089844 374.394531 380.308594 372.238281 379.039062 370.84375 C 376.761719 368.347656 375.980469 368.804688 373.15625 369.105469 C 370.410156 369.398438 367.605469 368.8125 364.933594 369.652344 C 361.433594 370.75 359.933594 372.988281 357.929688 375.863281 C 356.957031 377.257812 355.785156 378.542969 354.335938 379.429688 C 349.652344 382.300781 341.644531 380.03125 338.804688 386.058594 C 338.289062 387.148438 338.039062 388.277344 337.980469 389.414062 C 337.898438 391.0625 338.230469 392.730469 338.773438 394.328125 C 339.070312 395.191406 339.402344 396.054688 339.957031 396.773438 C 340.570312 397.570312 341.417969 398.144531 342.25 398.703125 C 347.089844 401.960938 352.277344 403.65625 357.855469 401.117188 C 359.46875 400.386719 360.828125 399.191406 362.402344 398.382812 C 363.976562 397.574219 365.976562 397.207031 367.460938 398.167969 C 365.242188 397.921875 363.285156 400.070312 363.109375 402.292969 C 362.9375 404.515625 364.128906 406.644531 365.644531 408.277344 C 367.519531 410.296875 369.84375 412.425781 372.300781 413.703125 C 375.878906 415.558594 380.4375 414.777344 383.714844 412.433594 C 385.40625 411.21875 386.855469 409.554688 387.40625 407.542969 C 388.664062 402.929688 384.242188 401.269531 382.792969 397.632812 C 382.152344 396.027344 382.074219 394.285156 382.359375 392.59375" fill="#4c4c4c"/></g><g id="change2_52"><path d="M 403.796875 349.742188 C 399.882812 346.925781 392.796875 350.070312 387.972656 356.773438 C 383.144531 363.476562 382.410156 371.195312 386.324219 374.015625 C 390.242188 376.835938 397.328125 373.6875 402.152344 366.984375 C 406.976562 360.28125 407.714844 352.5625 403.796875 349.742188" fill="#4c4c4c"/></g><g id="change2_53"><path d="M 409.515625 376.242188 C 405.597656 373.425781 398.511719 376.570312 393.6875 383.273438 C 388.863281 389.976562 388.128906 397.695312 392.042969 400.515625 C 395.960938 403.335938 403.046875 400.1875 407.871094 393.484375 C 412.695312 386.78125 413.429688 379.0625 409.515625 376.242188" fill="#4c4c4c"/></g><g id="change2_54"><path d="M 380.625 335.574219 C 375.96875 333.921875 369.902344 339.042969 367.074219 347.011719 C 364.25 354.976562 365.730469 362.777344 370.386719 364.429688 C 375.042969 366.078125 381.105469 360.960938 383.933594 352.992188 C 386.761719 345.023438 385.28125 337.226562 380.625 335.574219" fill="#4c4c4c"/></g><g id="change2_55"><path d="M 354.992188 346.214844 C 350.335938 344.5625 344.273438 349.683594 341.445312 357.648438 C 338.617188 365.617188 340.097656 373.414062 344.753906 375.066406 C 349.410156 376.71875 355.476562 371.601562 358.304688 363.632812 C 361.128906 355.664062 359.648438 347.867188 354.992188 346.214844" fill="#4c4c4c"/></g><g id="change2_56"><path d="M 132.359375 392.59375 C 132.949219 389.085938 136.328125 385.757812 135.257812 382.082031 C 134.664062 380.050781 133.132812 377.828125 132.050781 376.007812 C 131.089844 374.394531 130.308594 372.238281 129.039062 370.84375 C 126.761719 368.347656 125.980469 368.804688 123.15625 369.105469 C 120.410156 369.398438 117.605469 368.8125 114.933594 369.652344 C 111.433594 370.75 109.933594 372.988281 107.929688 375.863281 C 106.957031 377.257812 105.785156 378.542969 104.335938 379.429688 C 99.652344 382.300781 91.644531 380.03125 88.804688 386.058594 C 88.292969 387.148438 88.039062 388.277344 87.980469 389.414062 C 87.898438 391.0625 88.226562 392.730469 88.773438 394.328125 C 89.070312 395.191406 89.402344 396.054688 89.957031 396.773438 C 90.570312 397.570312 91.417969 398.144531 92.25 398.703125 C 97.089844 401.960938 102.277344 403.65625 107.855469 401.117188 C 109.46875 400.386719 110.828125 399.191406 112.402344 398.382812 C 113.976562 397.574219 115.976562 397.207031 117.460938 398.167969 C 115.242188 397.921875 113.285156 400.070312 113.109375 402.292969 C 112.9375 404.515625 114.128906 406.644531 115.644531 408.277344 C 117.519531 410.296875 119.84375 412.425781 122.300781 413.703125 C 125.878906 415.558594 130.4375 414.777344 133.714844 412.433594 C 135.40625 411.21875 136.855469 409.554688 137.40625 407.542969 C 138.664062 402.929688 134.242188 401.269531 132.792969 397.632812 C 132.152344 396.027344 132.074219 394.285156 132.359375 392.59375" fill="#4c4c4c"/></g><g id="change2_57"><path d="M 153.796875 349.742188 C 149.882812 346.925781 142.796875 350.070312 137.972656 356.773438 C 133.144531 363.476562 132.410156 371.195312 136.324219 374.015625 C 140.242188 376.835938 147.328125 373.6875 152.152344 366.984375 C 156.976562 360.28125 157.714844 352.5625 153.796875 349.742188" fill="#4c4c4c"/></g><g id="change2_58"><path d="M 159.515625 376.242188 C 155.597656 373.425781 148.511719 376.570312 143.6875 383.273438 C 138.863281 389.976562 138.128906 397.695312 142.042969 400.515625 C 145.960938 403.335938 153.046875 400.1875 157.871094 393.484375 C 162.695312 386.78125 163.429688 379.0625 159.515625 376.242188" fill="#4c4c4c"/></g><g id="change2_59"><path d="M 130.625 335.574219 C 125.96875 333.921875 119.902344 339.042969 117.074219 347.011719 C 114.25 354.976562 115.730469 362.777344 120.386719 364.429688 C 125.042969 366.078125 131.105469 360.960938 133.933594 352.992188 C 136.761719 345.023438 135.28125 337.226562 130.625 335.574219" fill="#4c4c4c"/></g><g id="change2_60"><path d="M 104.992188 346.214844 C 100.335938 344.5625 94.273438 349.683594 91.445312 357.648438 C 88.617188 365.617188 90.097656 373.414062 94.753906 375.066406 C 99.410156 376.71875 105.476562 371.601562 108.304688 363.632812 C 111.128906 355.664062 109.648438 347.867188 104.992188 346.214844" fill="#4c4c4c"/></g><g id="change2_61"><path d="M 882.359375 142.59375 C 882.949219 139.085938 886.328125 135.757812 885.257812 132.082031 C 884.664062 130.050781 883.132812 127.828125 882.050781 126.007812 C 881.089844 124.394531 880.308594 122.238281 879.039062 120.84375 C 876.761719 118.347656 875.980469 118.804688 873.15625 119.105469 C 870.410156 119.398438 867.605469 118.8125 864.933594 119.652344 C 861.433594 120.75 859.933594 122.988281 857.929688 125.863281 C 856.957031 127.257812 855.785156 128.542969 854.335938 129.429688 C 849.652344 132.300781 841.644531 130.03125 838.804688 136.058594 C 838.289062 137.148438 838.039062 138.277344 837.980469 139.414062 C 837.898438 141.0625 838.230469 142.730469 838.773438 144.328125 C 839.070312 145.191406 839.402344 146.054688 839.957031 146.773438 C 840.570312 147.570312 841.417969 148.144531 842.25 148.703125 C 847.089844 151.960938 852.277344 153.65625 857.855469 151.117188 C 859.46875 150.386719 860.828125 149.191406 862.402344 148.382812 C 863.976562 147.574219 865.976562 147.207031 867.460938 148.167969 C 865.242188 147.921875 863.285156 150.070312 863.109375 152.292969 C 862.9375 154.515625 864.128906 156.644531 865.644531 158.277344 C 867.519531 160.296875 869.84375 162.425781 872.300781 163.703125 C 875.878906 165.558594 880.4375 164.777344 883.714844 162.433594 C 885.40625 161.21875 886.855469 159.554688 887.40625 157.542969 C 888.664062 152.929688 884.242188 151.269531 882.792969 147.632812 C 882.152344 146.027344 882.074219 144.285156 882.359375 142.59375" fill="#4c4c4c"/></g><g id="change2_62"><path d="M 903.796875 99.742188 C 899.882812 96.921875 892.796875 100.070312 887.972656 106.773438 C 883.144531 113.476562 882.410156 121.195312 886.324219 124.015625 C 890.242188 126.835938 897.328125 123.6875 902.152344 116.984375 C 906.976562 110.28125 907.714844 102.5625 903.796875 99.742188" fill="#4c4c4c"/></g><g id="change2_63"><path d="M 909.515625 126.242188 C 905.597656 123.425781 898.511719 126.570312 893.6875 133.273438 C 888.863281 139.976562 888.128906 147.695312 892.042969 150.515625 C 895.960938 153.335938 903.046875 150.1875 907.871094 143.484375 C 912.695312 136.78125 913.429688 129.0625 909.515625 126.242188" fill="#4c4c4c"/></g><g id="change2_64"><path d="M 880.625 85.574219 C 875.96875 83.921875 869.902344 89.042969 867.074219 97.011719 C 864.25 104.976562 865.730469 112.777344 870.386719 114.429688 C 875.042969 116.078125 881.105469 110.960938 883.933594 102.992188 C 886.761719 95.023438 885.28125 87.226562 880.625 85.574219" fill="#4c4c4c"/></g><g id="change2_65"><path d="M 854.992188 96.214844 C 850.335938 94.5625 844.273438 99.683594 841.445312 107.648438 C 838.617188 115.617188 840.097656 123.414062 844.753906 125.066406 C 849.410156 126.71875 855.476562 121.601562 858.304688 113.632812 C 861.128906 105.664062 859.648438 97.867188 854.992188 96.214844" fill="#4c4c4c"/></g><g id="change2_66"><path d="M 632.359375 142.59375 C 632.949219 139.085938 636.328125 135.757812 635.257812 132.082031 C 634.664062 130.050781 633.132812 127.828125 632.050781 126.007812 C 631.089844 124.394531 630.308594 122.238281 629.039062 120.84375 C 626.761719 118.347656 625.980469 118.804688 623.15625 119.105469 C 620.410156 119.398438 617.605469 118.8125 614.933594 119.652344 C 611.433594 120.75 609.933594 122.988281 607.929688 125.863281 C 606.957031 127.257812 605.785156 128.542969 604.335938 129.429688 C 599.652344 132.300781 591.644531 130.03125 588.804688 136.058594 C 588.289062 137.148438 588.039062 138.277344 587.980469 139.414062 C 587.898438 141.0625 588.230469 142.730469 588.773438 144.328125 C 589.070312 145.191406 589.402344 146.054688 589.957031 146.773438 C 590.570312 147.570312 591.417969 148.144531 592.25 148.703125 C 597.089844 151.960938 602.277344 153.65625 607.855469 151.117188 C 609.46875 150.386719 610.828125 149.191406 612.402344 148.382812 C 613.976562 147.574219 615.976562 147.207031 617.460938 148.167969 C 615.242188 147.921875 613.285156 150.070312 613.109375 152.292969 C 612.9375 154.515625 614.128906 156.644531 615.644531 158.277344 C 617.519531 160.296875 619.84375 162.425781 622.300781 163.703125 C 625.878906 165.558594 630.4375 164.777344 633.714844 162.433594 C 635.40625 161.21875 636.855469 159.554688 637.40625 157.542969 C 638.664062 152.929688 634.242188 151.269531 632.792969 147.632812 C 632.152344 146.027344 632.074219 144.285156 632.359375 142.59375" fill="#4c4c4c"/></g><g id="change2_67"><path d="M 653.796875 99.742188 C 649.882812 96.921875 642.796875 100.070312 637.972656 106.773438 C 633.144531 113.476562 632.410156 121.195312 636.324219 124.015625 C 640.242188 126.835938 647.328125 123.6875 652.152344 116.984375 C 656.976562 110.28125 657.714844 102.5625 653.796875 99.742188" fill="#4c4c4c"/></g><g id="change2_68"><path d="M 659.515625 126.242188 C 655.597656 123.425781 648.511719 126.570312 643.6875 133.273438 C 638.863281 139.976562 638.128906 147.695312 642.042969 150.515625 C 645.960938 153.335938 653.046875 150.1875 657.871094 143.484375 C 662.695312 136.78125 663.429688 129.0625 659.515625 126.242188" fill="#4c4c4c"/></g><g id="change2_69"><path d="M 630.625 85.574219 C 625.96875 83.921875 619.902344 89.042969 617.074219 97.011719 C 614.25 104.976562 615.730469 112.777344 620.386719 114.429688 C 625.042969 116.078125 631.105469 110.960938 633.933594 102.992188 C 636.761719 95.023438 635.28125 87.226562 630.625 85.574219" fill="#4c4c4c"/></g><g id="change2_70"><path d="M 604.992188 96.214844 C 600.335938 94.5625 594.273438 99.683594 591.445312 107.648438 C 588.617188 115.617188 590.097656 123.414062 594.753906 125.066406 C 599.410156 126.71875 605.476562 121.601562 608.304688 113.632812 C 611.128906 105.664062 609.648438 97.867188 604.992188 96.214844" fill="#4c4c4c"/></g><g id="change2_71"><path d="M 382.359375 142.59375 C 382.949219 139.085938 386.328125 135.757812 385.257812 132.082031 C 384.664062 130.050781 383.132812 127.828125 382.050781 126.007812 C 381.089844 124.394531 380.308594 122.238281 379.039062 120.84375 C 376.761719 118.347656 375.980469 118.804688 373.15625 119.105469 C 370.410156 119.398438 367.605469 118.8125 364.933594 119.652344 C 361.433594 120.75 359.933594 122.988281 357.929688 125.863281 C 356.957031 127.257812 355.785156 128.542969 354.335938 129.429688 C 349.652344 132.300781 341.644531 130.03125 338.804688 136.058594 C 338.289062 137.148438 338.039062 138.277344 337.980469 139.414062 C 337.898438 141.0625 338.230469 142.730469 338.773438 144.328125 C 339.070312 145.191406 339.402344 146.054688 339.957031 146.773438 C 340.570312 147.570312 341.417969 148.144531 342.25 148.703125 C 347.089844 151.960938 352.277344 153.65625 357.855469 151.117188 C 359.46875 150.386719 360.828125 149.191406 362.402344 148.382812 C 363.976562 147.574219 365.976562 147.207031 367.460938 148.167969 C 365.242188 147.921875 363.285156 150.070312 363.109375 152.292969 C 362.9375 154.515625 364.128906 156.644531 365.644531 158.277344 C 367.519531 160.296875 369.84375 162.425781 372.300781 163.703125 C 375.878906 165.558594 380.4375 164.777344 383.714844 162.433594 C 385.40625 161.21875 386.855469 159.554688 387.40625 157.542969 C 388.664062 152.929688 384.242188 151.269531 382.792969 147.632812 C 382.152344 146.027344 382.074219 144.285156 382.359375 142.59375" fill="#4c4c4c"/></g><g id="change2_72"><path d="M 403.796875 99.742188 C 399.882812 96.921875 392.796875 100.070312 387.972656 106.773438 C 383.144531 113.476562 382.410156 121.195312 386.324219 124.015625 C 390.242188 126.835938 397.328125 123.6875 402.152344 116.984375 C 406.976562 110.28125 407.714844 102.5625 403.796875 99.742188" fill="#4c4c4c"/></g><g id="change2_73"><path d="M 409.515625 126.242188 C 405.597656 123.425781 398.511719 126.570312 393.6875 133.273438 C 388.863281 139.976562 388.128906 147.695312 392.042969 150.515625 C 395.960938 153.335938 403.046875 150.1875 407.871094 143.484375 C 412.695312 136.78125 413.429688 129.0625 409.515625 126.242188" fill="#4c4c4c"/></g><g id="change2_74"><path d="M 380.625 85.574219 C 375.96875 83.921875 369.902344 89.042969 367.074219 97.011719 C 364.25 104.976562 365.730469 112.777344 370.386719 114.429688 C 375.042969 116.078125 381.105469 110.960938 383.933594 102.992188 C 386.761719 95.023438 385.28125 87.226562 380.625 85.574219" fill="#4c4c4c"/></g><g id="change2_75"><path d="M 354.992188 96.214844 C 350.335938 94.5625 344.273438 99.683594 341.445312 107.648438 C 338.617188 115.617188 340.097656 123.414062 344.753906 125.066406 C 349.410156 126.71875 355.476562 121.601562 358.304688 113.632812 C 361.128906 105.664062 359.648438 97.867188 354.992188 96.214844" fill="#4c4c4c"/></g><g id="change2_76"><path d="M 132.359375 142.59375 C 132.949219 139.085938 136.328125 135.757812 135.257812 132.082031 C 134.664062 130.050781 133.132812 127.828125 132.050781 126.007812 C 131.089844 124.394531 130.308594 122.238281 129.039062 120.84375 C 126.761719 118.347656 125.980469 118.804688 123.15625 119.105469 C 120.410156 119.398438 117.605469 118.8125 114.933594 119.652344 C 111.433594 120.75 109.933594 122.988281 107.929688 125.863281 C 106.957031 127.257812 105.785156 128.542969 104.335938 129.429688 C 99.652344 132.300781 91.644531 130.03125 88.804688 136.058594 C 88.292969 137.148438 88.039062 138.277344 87.980469 139.414062 C 87.898438 141.0625 88.226562 142.730469 88.773438 144.328125 C 89.070312 145.191406 89.402344 146.054688 89.957031 146.773438 C 90.570312 147.570312 91.417969 148.144531 92.25 148.703125 C 97.089844 151.960938 102.277344 153.65625 107.855469 151.117188 C 109.46875 150.386719 110.828125 149.191406 112.402344 148.382812 C 113.976562 147.574219 115.976562 147.207031 117.460938 148.167969 C 115.242188 147.921875 113.285156 150.070312 113.109375 152.292969 C 112.9375 154.515625 114.128906 156.644531 115.644531 158.277344 C 117.519531 160.296875 119.84375 162.425781 122.300781 163.703125 C 125.878906 165.558594 130.4375 164.777344 133.714844 162.433594 C 135.40625 161.21875 136.855469 159.554688 137.40625 157.542969 C 138.664062 152.929688 134.242188 151.269531 132.792969 147.632812 C 132.152344 146.027344 132.074219 144.285156 132.359375 142.59375" fill="#4c4c4c"/></g><g id="change2_77"><path d="M 153.796875 99.742188 C 149.882812 96.921875 142.796875 100.070312 137.972656 106.773438 C 133.144531 113.476562 132.410156 121.195312 136.324219 124.015625 C 140.242188 126.835938 147.328125 123.6875 152.152344 116.984375 C 156.976562 110.28125 157.714844 102.5625 153.796875 99.742188" fill="#4c4c4c"/></g><g id="change2_78"><path d="M 159.515625 126.242188 C 155.597656 123.425781 148.511719 126.570312 143.6875 133.273438 C 138.863281 139.976562 138.128906 147.695312 142.042969 150.515625 C 145.960938 153.335938 153.046875 150.1875 157.871094 143.484375 C 162.695312 136.78125 163.429688 129.0625 159.515625 126.242188" fill="#4c4c4c"/></g><g id="change2_79"><path d="M 130.625 85.574219 C 125.96875 83.921875 119.902344 89.042969 117.074219 97.011719 C 114.25 104.976562 115.730469 112.777344 120.386719 114.429688 C 125.042969 116.078125 131.105469 110.960938 133.933594 102.992188 C 136.761719 95.023438 135.28125 87.226562 130.625 85.574219" fill="#4c4c4c"/></g><g id="change2_80"><path d="M 104.992188 96.214844 C 100.335938 94.5625 94.273438 99.683594 91.445312 107.648438 C 88.617188 115.617188 90.097656 123.414062 94.753906 125.066406 C 99.410156 126.71875 105.476562 121.601562 108.304688 113.632812 C 111.128906 105.664062 109.648438 97.867188 104.992188 96.214844" fill="#4c4c4c"/></g></g></svg>