<?xml version="1.0" encoding="UTF-8" standalone="no"?><svg xmlns="http://www.w3.org/2000/svg" xmlns:xlink="http://www.w3.org/1999/xlink" fill="#000000" height="813.2" preserveAspectRatio="xMidYMid meet" version="1" viewBox="25.4 25.4 813.2 813.2" width="813.2" zoomAndPan="magnify"><g fill="#ffffff" id="change1_2"><path d="M454.8374,140.9248c-5.26489-10.11031-9.19629-24.07081-23.14279-24.07081 c-13.94672,0-17.87811,13.9605-23.14291,24.07081c-5.75308,11.04779-18.06799,14.9502-24.96811,24.7843 c-4.39828,6.26819-5.3689,14.79439-2.4924,21.8909c3.1152,7.68529,10.74451,13.41789,18.95532,14.50069 c4.97299,0.65561,9.7402-0.19559,14.44229-1.5376c5.62869-1.60469,11.41409-2.407,17.20581-2.407 c5.7916,0,11.577,0.80231,17.2056,2.407c4.70209,1.34201,9.46939,2.19321,14.44229,1.5376 c8.21091-1.08279,15.84021-6.8154,18.95541-14.50069c2.8765-7.09651,1.90588-15.62271-2.49252-21.8909 C472.9054,155.875,460.59052,151.9726,454.8374,140.9248z"/><path d="M393.93909,139.1559c0.00101-0.0126,0.00201-0.02519,0.0032-0.0378 c0.9075-10.8573-6.38739-23.0442-14.42078-29.93581c-1.92682-1.65289-4.26413-2.92889-6.79053-3.1765 c-4.23608-0.4152-8.31189,2.1574-10.72339,5.4994c-2.64941,3.67149-3.64819,8.2879-3.97958,12.8037 c-0.38083,5.2099,0.0448,10.4783,1.25748,15.5592c1.2009,5.0242,3.46191,10.2157,7.92822,12.80769 C377.25729,158.50459,392.9509,150.71761,393.93909,139.1559z"/><path d="M502.95529,114.6647c-2.1922-3.48981-6.0946-6.3185-10.3486-6.176 c-2.53708,0.085-4.95148,1.2084-6.98019,2.7343c-8.45898,6.362-16.52069,18.0559-16.31158,28.94891 c0.00018,0.0127,0.0004,0.0253,0.00079,0.03799c0.2442,11.60139,15.4061,20.379,25.8027,15.2067 c4.6235-2.3002,7.2128-7.336,8.7337-12.2728c1.53619-4.9926,2.2988-10.22279,2.25308-15.4465 C506.06421,123.1696,505.36371,118.4987,502.95529,114.6647z"/><path d="M391.17068,100.9642c1.4519,4.8698,4.41232,9.3071,8.8764,11.5034 c3.84241,1.8905,8.48151,1.9273,12.58102,0.4838c6.36859-2.2427,12.4964-8.2659,14.28729-14.9249 c3.10489-11.5448-2.13571-32.5247-14.46951-36.8635c-7.83508-2.7561-14.47089,3.93641-18.0452,10.3898 c-4.2962,7.75629-5.39398,17.95119-3.90869,26.5179C390.6604,99.0428,390.88669,100.0117,391.17068,100.9642z"/><path d="M453.29721,113.2531c4.0842,1.4859,8.72339,1.4971,12.58539-0.3535 c4.48651-2.14999,7.49261-6.5564,8.99481-11.4109c0.29388-0.9495,0.53009-1.916,0.70868-2.8863 c1.57401-8.5509,0.5816-18.7566-3.634-26.557c-3.50739-6.49001-10.07349-13.2508-17.93658-10.576 c-12.37799,4.2108-17.8356,25.1354-14.85031,36.7117C440.88699,104.8582,446.952,110.9446,453.29721,113.2531z"/></g><g fill="#ffffff" id="change1_6"><path d="M454.8374,723.0752c-5.26489,10.11029-9.19629,24.0708-23.14279,24.0708 c-13.94672,0-17.87811-13.96051-23.14291-24.0708c-5.75308-11.04779-18.06799-14.9502-24.96811-24.7843 c-4.39828-6.26819-5.3689-14.79437-2.4924-21.89087c3.1152-7.6853,10.74451-13.41791,18.95532-14.50073 c4.97299-0.65558,9.7402,0.19562,14.44229,1.5376c5.62869,1.60474,11.41409,2.40698,17.20581,2.40698 c5.7916,0,11.577-0.80225,17.2056-2.40698c4.70209-1.34198,9.46939-2.19318,14.44229-1.5376 c8.21091,1.08282,15.84021,6.81543,18.95541,14.50073c2.8765,7.0965,1.90588,15.62268-2.49252,21.89087 C472.9054,708.125,460.59052,712.0274,454.8374,723.0752z"/><path d="M393.93909,724.84412c0.00101,0.01257,0.00201,0.02521,0.0032,0.03778 c0.9075,10.8573-6.38739,23.04419-14.42078,29.93579c-1.92682,1.65289-4.26413,2.92889-6.79053,3.17651 c-4.23608,0.41522-8.31189-2.15741-10.72339-5.49939c-2.64941-3.67151-3.64819-8.2879-3.97958-12.80371 c-0.38083-5.2099,0.0448-10.47827,1.25748-15.5592c1.2009-5.02417,3.46191-10.2157,7.92822-12.80768 C377.25729,705.49542,392.9509,713.28241,393.93909,724.84412z"/><path d="M502.95529,749.33533c-2.1922,3.48975-6.0946,6.31848-10.3486,6.17596 c-2.53708-0.08502-4.95148-1.20837-6.98019-2.73431c-8.45898-6.362-16.52069-18.05585-16.31158-28.94885 c0.00018-0.0127,0.0004-0.02533,0.00079-0.03802c0.2442-11.60138,15.4061-20.37903,25.8027-15.20673 c4.6235,2.30023,7.2128,7.336,8.7337,12.27283c1.53619,4.99261,2.2988,10.22278,2.25308,15.44647 C506.06421,740.83038,505.36371,745.50128,502.95529,749.33533z"/><path d="M391.17068,763.03583c1.4519-4.86981,4.41232-9.30713,8.8764-11.50342 c3.84241-1.8905,8.48151-1.92731,12.58102-0.48383c6.36859,2.24274,12.4964,8.26593,14.28729,14.92493 c3.10489,11.5448-2.13571,32.52472-14.46951,36.86346c-7.83508,2.7561-14.47089-3.9364-18.0452-10.38977 c-4.2962-7.75629-5.39398-17.95123-3.90869-26.51788C390.6604,764.95721,390.88669,763.98828,391.17068,763.03583z"/><path d="M453.29721,750.74689c4.0842-1.4859,8.72339-1.49707,12.58539,0.35352 c4.48651,2.15002,7.49261,6.5564,8.99481,11.41089c0.29388,0.94952,0.53009,1.91602,0.70868,2.88629 c1.57401,8.5509,0.5816,18.75659-3.634,26.55701c-3.50739,6.48999-10.07349,13.25079-17.93658,10.57599 c-12.37799-4.21075-17.8356-25.13538-14.85031-36.71167C440.88699,759.14178,446.952,753.05542,453.29721,750.74689z"/></g><g id="change1_7"><path d="M432,650.83978c-58.4541,0-113.40921-22.76361-154.74319-64.09656 C235.9238,545.40918,213.1602,490.4541,213.1602,432s22.7636-113.4097,64.0966-154.74319 C318.59079,235.92329,373.5459,213.1602,432,213.1602s113.40918,22.76309,154.74323,64.0966 C628.07617,318.5903,650.83978,373.5459,650.83978,432s-22.76361,113.40918-64.09656,154.74323 C545.40918,628.07617,490.4541,650.83978,432,650.83978z M432,233.1602c-109.64059,0-198.8398,89.1992-198.8398,198.8398 S322.35941,630.83978,432,630.83978S630.83978,541.64062,630.83978,432S541.64062,233.1602,432,233.1602z" fill="#ffffff"/></g><g id="change1_8"><path d="M432,838.60162c-54.88669,0-108.13669-10.75201-158.27051-31.95715 c-48.41899-20.47949-91.90239-49.79486-129.24019-87.13379c-37.33891-37.33777-66.6543-80.82117-87.1338-129.24017 C36.1504,540.13672,25.3984,486.88669,25.3984,432s10.752-108.13669,31.9571-158.27051 c20.4795-48.41939,49.7949-91.90189,87.1338-129.24019c37.3378-37.3384,80.8212-66.6543,129.24019-87.1338 C323.86331,36.1504,377.11331,25.3984,432,25.3984s108.13672,10.752,158.27051,31.9571 c48.41901,20.4795,91.9024,49.7954,129.24017,87.1338c37.33893,37.3383,66.6543,80.8208,87.13379,129.24019 C827.84961,323.86331,838.60162,377.11331,838.60162,432s-10.75201,108.13672-31.95715,158.27051 c-20.47949,48.41901-49.79486,91.9024-87.13379,129.24017c-37.33777,37.33893-80.82117,66.6543-129.24017,87.13379 C540.13672,827.84961,486.88669,838.60162,432,838.60162z M432,45.3984c-52.19531,0-102.82419,10.2203-150.47949,30.377 c-46.03511,19.4712-87.38091,47.3481-122.8887,82.8559c-35.5088,35.5079-63.3857,76.8541-82.85641,122.88869 C55.6191,329.17581,45.3984,379.80469,45.3984,432s10.2207,102.82422,30.377,150.47949 c19.4707,46.0351,47.3476,87.38092,82.85641,122.88873c35.5078,35.50879,76.85359,63.38568,122.8887,82.85638 c47.6553,20.15631,98.28418,30.37701,150.47949,30.37701s102.82422-10.2207,150.47949-30.37701 c46.0351-19.4707,87.38092-47.3476,122.88873-82.85638c35.50879-35.50781,63.38568-76.85364,82.85638-122.88873 C808.38092,534.82422,818.60162,484.19531,818.60162,432s-10.2207-102.82419-30.37701-150.48001 c-19.4707-46.03459-47.3476-87.38078-82.85638-122.88869c-35.50781-35.5078-76.85364-63.3847-122.88873-82.8559 C534.82422,55.6187,484.19531,45.3984,432,45.3984z" fill="#ffffff"/></g><g fill="#ffffff" id="change1_9"><path d="M723.0752,454.8374c10.11029-5.26489,24.0708-9.19629,24.0708-23.14279 c0-13.94672-13.96051-17.87811-24.0708-23.14291c-11.04779-5.75308-14.9502-18.06799-24.7843-24.96811 c-6.26819-4.39828-14.79437-5.3689-21.89087-2.4924c-7.6853,3.1152-13.41791,10.74451-14.50073,18.95532 c-0.65558,4.97299,0.19562,9.7402,1.5376,14.44229c1.60474,5.62869,2.40698,11.41409,2.40698,17.20581 c0,5.7916-0.80225,11.577-2.40698,17.2056c-1.34198,4.70209-2.19318,9.46939-1.5376,14.44229 c1.08282,8.21091,6.81543,15.84021,14.50073,18.95541c7.0965,2.8765,15.62268,1.90588,21.89087-2.49252 C708.125,472.9054,712.0274,460.59052,723.0752,454.8374z"/><path d="M724.84412,393.93909c0.01257,0.00101,0.02521,0.00201,0.03778,0.0032 c10.8573,0.9075,23.04419-6.38739,29.93579-14.42078c1.65289-1.92682,2.92889-4.26413,3.17651-6.79053 c0.41522-4.23608-2.15741-8.31189-5.49939-10.72339c-3.67151-2.64941-8.2879-3.64819-12.80371-3.97958 c-5.2099-0.38083-10.47827,0.0448-15.5592,1.25748c-5.02417,1.2009-10.2157,3.46191-12.80768,7.92822 C705.49542,377.25729,713.28241,392.9509,724.84412,393.93909z"/><path d="M749.33533,502.95529c3.48975-2.1922,6.31848-6.0946,6.17596-10.3486 c-0.08502-2.53708-1.20837-4.95148-2.73431-6.98019c-6.362-8.45898-18.05585-16.52069-28.94885-16.31158 c-0.0127,0.00018-0.02533,0.0004-0.03802,0.00079c-11.60138,0.2442-20.37903,15.4061-15.20673,25.8027 c2.30023,4.6235,7.336,7.2128,12.27283,8.7337c4.99261,1.53619,10.22278,2.2988,15.44647,2.25308 C740.83038,506.06421,745.50128,505.36371,749.33533,502.95529z"/><path d="M763.03583,391.17068c-4.86981,1.4519-9.30713,4.41232-11.50342,8.8764 c-1.8905,3.84241-1.92731,8.48151-0.48383,12.58102c2.24274,6.36859,8.26593,12.4964,14.92493,14.28729 c11.5448,3.10489,32.52472-2.13571,36.86346-14.46951c2.7561-7.83508-3.9364-14.47089-10.38977-18.0452 c-7.75629-4.2962-17.95123-5.39398-26.51788-3.90869C764.95721,390.6604,763.98828,390.88669,763.03583,391.17068z"/><path d="M750.74689,453.29721c-1.4859,4.0842-1.49707,8.72339,0.35352,12.58539 c2.15002,4.48651,6.5564,7.49261,11.41089,8.99481c0.94952,0.29388,1.91602,0.53009,2.88629,0.70868 c8.5509,1.57401,18.75659,0.5816,26.55701-3.634c6.48999-3.50739,13.25079-10.07349,10.57599-17.93658 c-4.21075-12.37799-25.13538-17.8356-36.71167-14.85031C759.14178,440.88699,753.05542,446.952,750.74689,453.29721z"/></g><g fill="#ffffff" id="change1_3"><path d="M140.9248,454.8374c-10.11031-5.26489-24.07081-9.19629-24.07081-23.14279 c0-13.94672,13.9605-17.87811,24.07081-23.14291c11.04779-5.75308,14.9502-18.06799,24.7843-24.96811 c6.26819-4.39828,14.79439-5.3689,21.8909-2.4924c7.68529,3.1152,13.41789,10.74451,14.50069,18.95532 c0.65561,4.97299-0.19559,9.7402-1.5376,14.44229c-1.60469,5.62869-2.407,11.41409-2.407,17.20581 c0,5.7916,0.80231,11.577,2.407,17.2056c1.34201,4.70209,2.19321,9.46939,1.5376,14.44229 c-1.08279,8.21091-6.8154,15.84021-14.50069,18.95541c-7.09651,2.8765-15.62271,1.90588-21.8909-2.49252 C155.875,472.9054,151.9726,460.59052,140.9248,454.8374z"/><path d="M139.1559,393.93909c-0.0126,0.00101-0.02519,0.00201-0.0378,0.0032 c-10.8573,0.9075-23.0442-6.38739-29.93581-14.42078c-1.65289-1.92682-2.92889-4.26413-3.1765-6.79053 c-0.4152-4.23608,2.1574-8.31189,5.4994-10.72339c3.67149-2.64941,8.2879-3.64819,12.8037-3.97958 c5.2099-0.38083,10.4783,0.0448,15.5592,1.25748c5.0242,1.2009,10.2157,3.46191,12.80769,7.92822 C158.50459,377.25729,150.71761,392.9509,139.1559,393.93909z"/><path d="M114.6647,502.95529c-3.48981-2.1922-6.3185-6.0946-6.176-10.3486 c0.085-2.53708,1.2084-4.95148,2.7343-6.98019c6.362-8.45898,18.0559-16.52069,28.94891-16.31158 c0.0127,0.00018,0.0253,0.0004,0.03799,0.00079c11.60139,0.2442,20.379,15.4061,15.2067,25.8027 c-2.3002,4.6235-7.336,7.2128-12.2728,8.7337c-4.9926,1.53619-10.22279,2.2988-15.4465,2.25308 C123.1696,506.06421,118.4987,505.36371,114.6647,502.95529z"/><path d="M100.9642,391.17068c4.8698,1.4519,9.3071,4.41232,11.5034,8.8764 c1.8905,3.84241,1.9273,8.48151,0.4838,12.58102c-2.2427,6.36859-8.2659,12.4964-14.9249,14.28729 c-11.5448,3.10489-32.5247-2.13571-36.8635-14.46951c-2.7561-7.83508,3.93641-14.47089,10.3898-18.0452 c7.75629-4.2962,17.95119-5.39398,26.5179-3.90869C99.0428,390.6604,100.0117,390.88669,100.9642,391.17068z"/><path d="M113.2531,453.29721c1.4859,4.0842,1.4971,8.72339-0.3535,12.58539 c-2.14999,4.48651-6.5564,7.49261-11.4109,8.99481c-0.9495,0.29388-1.916,0.53009-2.8863,0.70868 c-8.5509,1.57401-18.7566,0.5816-26.557-3.634c-6.49001-3.50739-13.2508-10.07349-10.576-17.93658 c4.2108-12.37799,25.1354-17.8356,36.7117-14.85031C104.8582,440.88699,110.9446,446.952,113.2531,453.29721z"/></g><g fill="#ffffff" id="change1_1"><path d="M653.96979,242.32719c3.42621-10.8718,10.51782-23.52339,0.65613-33.3851 c-9.86182-9.86169-22.51331-2.7701-33.38513,0.6562c-11.88,3.7439-23.34741-2.20459-35.1803-0.12999 c-7.5423,1.3223-14.25757,6.66489-17.24158,13.71689c-3.23151,7.6371-1.89032,17.0854,3.1499,23.65691 c3.05292,3.9801,7.0257,6.7491,11.2995,9.125c5.11481,2.8454,9.77301,6.36899,13.86829,10.46429s7.6189,8.75351,10.46423,13.86832 c2.37598,4.27368,5.14496,8.24658,9.12506,11.29938c6.57159,5.04041,16.0199,6.3815,23.65698,3.15002 c7.052-2.98401,12.39465-9.69931,13.7168-17.24173C656.17438,265.67459,650.22583,254.2072,653.96979,242.32719z"/><path d="M612.15887,198.0148c0.0097-0.00819,0.01935-0.0164,0.02905-0.02451 c8.31897-7.03549,11.7782-20.81129,10.97076-31.36479c-0.19366-2.5312-0.94421-5.0862-2.55548-7.0477 c-2.70178-3.289-7.40289-4.3519-11.47119-3.694c-4.46973,0.72279-8.44012,3.28079-11.86761,6.23959 c-3.95319,3.4147-7.37762,7.44101-10.11292,11.8912c-2.70337,4.40179-4.77557,9.67149-3.45032,14.6626 C586.68152,199.9005,603.28479,205.49139,612.15887,198.0148z"/><path d="M706.56293,257.78299c0.9176-4.01779,0.15839-8.77728-2.95044-11.68459 c-1.85419-1.7339-4.35577-2.6468-6.86926-3.0023c-10.48004-1.4828-24.44934,1.08549-32.00403,8.9359 c-0.00879,0.0092-0.01758,0.0182-0.02631,0.0274c-8.0307,8.37608-3.5163,25.30391,7.49249,28.99809 c4.89594,1.64279,10.28772-0.08719,14.85394-2.5025c4.61646-2.44409,8.85406-5.60318,12.51538-9.32919 C702.74738,265.99521,705.55487,262.19699,706.56293,257.78299z"/><path d="M637.20697,169.0517c-2.41675,4.47011-3.46118,9.701-1.85754,14.4106 c1.38019,4.05391,4.63446,7.3602,8.55396,9.2382c6.08911,2.9175,14.68121,2.9915,20.65619-0.45081 c10.35895-5.9679,21.48822-24.50859,15.8349-36.2979c-3.59137-7.48909-13.01587-7.44899-20.10645-5.41319 c-8.5224,2.4467-16.50763,8.87929-21.51495,15.98709C638.20477,167.3322,637.67969,168.1774,637.20697,169.0517z"/><path d="M672.44751,221.6713c1.83722,3.93871,5.10968,7.22701,9.14911,8.6492 c4.69269,1.65221,9.9342,0.66211,14.42908-1.70839c0.87921-0.4635,1.72961-0.98001,2.54199-1.5397 c7.15942-4.9335,13.67413-12.8517,16.20911-21.3483c2.10901-7.0692,2.2467-16.49281-5.20477-20.1615 c-11.7301-5.7751-30.38501,5.1617-36.45984,15.4583C669.60822,206.9599,669.59308,215.55209,672.44751,221.6713z"/></g><g fill="#ffffff" id="change1_10"><path d="M242.32719,653.96979c-10.8718,3.42621-23.52339,10.51782-33.3851,0.65613 c-9.86169-9.86182-2.7701-22.51331,0.6562-33.38513c3.7439-11.88-2.20459-23.34741-0.12999-35.1803 c1.3223-7.5423,6.66489-14.25757,13.71689-17.24158c7.6371-3.23151,17.0854-1.89032,23.65691,3.1499 c3.9801,3.05292,6.7491,7.0257,9.125,11.2995c2.8454,5.11481,6.36899,9.77301,10.46429,13.86829s8.75351,7.6189,13.86832,10.46423 c4.27368,2.37598,8.24658,5.14496,11.29938,9.12506c5.04041,6.57159,6.3815,16.0199,3.15002,23.65698 c-2.98401,7.052-9.69931,12.39465-17.24173,13.7168C265.67459,656.17438,254.2072,650.22583,242.32719,653.96979z"/><path d="M198.0148,612.15887c-0.00819,0.0097-0.0164,0.01935-0.02451,0.02905 c-7.03549,8.31897-20.81129,11.7782-31.36479,10.97076c-2.5312-0.19366-5.0862-0.94421-7.0477-2.55548 c-3.289-2.70178-4.3519-7.40289-3.694-11.47119c0.72279-4.46973,3.28079-8.44012,6.23959-11.86761 c3.4147-3.95319,7.44101-7.37762,11.8912-10.11292c4.40179-2.70337,9.67149-4.77557,14.6626-3.45032 C199.9005,586.68152,205.49139,603.28479,198.0148,612.15887z"/><path d="M257.78299,706.56293c-4.01779,0.9176-8.77728,0.15839-11.68459-2.95044 c-1.7339-1.85419-2.6468-4.35577-3.0023-6.86926c-1.4828-10.48004,1.08549-24.44934,8.9359-32.00403 c0.0092-0.00879,0.0182-0.01758,0.0274-0.02631c8.37608-8.0307,25.30391-3.5163,28.99809,7.49249 c1.64279,4.89594-0.08719,10.28772-2.5025,14.85394c-2.44409,4.61646-5.60318,8.85406-9.32919,12.51538 C265.99521,702.74738,262.19699,705.55487,257.78299,706.56293z"/><path d="M169.0517,637.20697c4.47011-2.41675,9.701-3.46118,14.4106-1.85754 c4.05391,1.38019,7.3602,4.63446,9.2382,8.55396c2.9175,6.08911,2.9915,14.68121-0.45081,20.65619 c-5.9679,10.35895-24.50859,21.48822-36.2979,15.8349c-7.48909-3.59137-7.44899-13.01587-5.41319-20.10645 c2.4467-8.5224,8.87929-16.50763,15.98709-21.51495C167.3322,638.20477,168.1774,637.67969,169.0517,637.20697z"/><path d="M221.6713,672.44751c3.93871,1.83722,7.22701,5.10968,8.6492,9.14911 c1.65221,4.69269,0.66211,9.9342-1.70839,14.42908c-0.4635,0.87921-0.98001,1.72961-1.5397,2.54199 c-4.9335,7.15942-12.8517,13.67413-21.3483,16.20911c-7.0692,2.10901-16.49281,2.2467-20.1615-5.20477 c-5.7751-11.7301,5.1617-30.38501,15.4583-36.45984C206.9599,669.60822,215.55209,669.59308,221.6713,672.44751z"/></g><g fill="#ffffff" id="change1_4"><path d="M621.67279,653.96979c10.87183,3.42621,23.52344,10.51782,33.38513,0.65613 c9.86169-9.86182,2.77008-22.51331-0.65625-33.38513c-3.7439-11.88,2.20465-23.34741,0.13-35.1803 c-1.32227-7.5423-6.66486-14.25757-13.71686-17.24158c-7.63715-3.23151-17.08545-1.89032-23.65692,3.1499 c-3.9801,3.05292-6.74908,7.0257-9.125,11.2995c-2.8454,5.11481-6.36902,9.77301-10.46429,13.86829 s-8.75348,7.6189-13.86829,10.46423c-4.27374,2.37598-8.24664,5.14496-11.29944,9.12506 c-5.04041,6.57159-6.38147,16.0199-3.14996,23.65698c2.98401,7.052,9.69928,12.39465,17.2417,13.7168 C598.32538,656.17438,609.79279,650.22583,621.67279,653.96979z"/><path d="M665.98523,612.15887c0.00818,0.0097,0.01636,0.01935,0.02448,0.02905 c7.03552,8.31897,20.81128,11.7782,31.36481,10.97076c2.53119-0.19366,5.08618-0.94421,7.04767-2.55548 c3.289-2.70178,4.35193-7.40289,3.69403-11.47119c-0.72284-4.46973-3.28082-8.44012-6.23962-11.86761 c-3.41467-3.95319-7.44098-7.37762-11.89117-10.11292c-4.40179-2.70337-9.67151-4.77557-14.6626-3.45032 C664.09949,586.68152,658.50861,603.28479,665.98523,612.15887z"/><path d="M606.21698,706.56293c4.01782,0.9176,8.77734,0.15839,11.68463-2.95044 c1.73389-1.85419,2.64679-4.35577,3.00226-6.86926c1.48285-10.48004-1.08545-24.44934-8.93585-32.00403 c-0.00922-0.00879-0.01819-0.01758-0.0274-0.02631c-8.3761-8.0307-25.30389-3.5163-28.99811,7.49249 c-1.64282,4.89594,0.08722,10.28772,2.5025,14.85394c2.44409,4.61646,5.60321,8.85406,9.32916,12.51538 C598.00482,702.74738,601.80298,705.55487,606.21698,706.56293z"/><path d="M694.9483,637.20697c-4.47009-2.41675-9.70099-3.46118-14.41058-1.85754 c-4.05389,1.38019-7.36023,4.63446-9.23822,8.55396c-2.91748,6.08911-2.99152,14.68121,0.45081,20.65619 c5.9679,10.35895,24.50861,21.48822,36.29791,15.8349c7.48907-3.59137,7.44897-13.01587,5.41321-20.10645 c-2.44672-8.5224-8.87933-16.50763-15.98712-21.51495C696.66779,638.20477,695.82257,637.67969,694.9483,637.20697z"/><path d="M642.32867,672.44751c-3.93866,1.83722-7.22699,5.10968-8.64917,9.14911 c-1.65222,4.69269-0.66211,9.9342,1.70837,14.42908c0.4635,0.87921,0.98004,1.72961,1.53973,2.54199 c4.93347,7.15942,12.85168,13.67413,21.34827,16.20911c7.06921,2.10901,16.4928,2.2467,20.1615-5.20477 c5.77515-11.7301-5.16168-30.38501-15.45825-36.45984C657.0401,669.60822,648.44788,669.59308,642.32867,672.44751z"/></g><g fill="#ffffff" id="change1_5"><path d="M210.0302,242.32719c-3.42619-10.8718-10.51779-23.52339-0.6561-33.3851 c9.8618-9.86169,22.51331-2.7701,33.3851,0.6562c11.88,3.7439,23.3474-2.20459,35.18031-0.12999 c7.5423,1.3223,14.2576,6.66489,17.24158,13.71689c3.23151,7.6371,1.89032,17.0854-3.1499,23.65691 c-3.05289,3.9801-7.0257,6.7491-11.2995,9.125c-5.11478,2.8454-9.77298,6.36899-13.86829,10.46429 s-7.6189,8.75351-10.4642,13.86832c-2.37601,4.27368-5.145,8.24658-9.12511,11.29938 c-6.57159,5.04041-16.0199,6.3815-23.657,3.15002c-7.052-2.98401-12.39459-9.69931-13.7168-17.24173 C207.82561,265.67459,213.7742,254.2072,210.0302,242.32719z"/><path d="M251.84109,198.0148c-0.00969-0.00819-0.0193-0.0164-0.02899-0.02451 c-8.319-7.03549-11.7782-20.81129-10.97081-31.36479c0.19371-2.5312,0.94421-5.0862,2.55551-7.0477 c2.7018-3.289,7.40289-4.3519,11.47119-3.694c4.46971,0.72279,8.44011,3.28079,11.8676,6.23959 c3.95322,3.4147,7.37759,7.44101,10.11292,11.8912c2.7034,4.40179,4.7756,9.67149,3.45029,14.6626 C277.31851,199.9005,260.71521,205.49139,251.84109,198.0148z"/><path d="M157.4371,257.78299c-0.9176-4.01779-0.1584-8.77728,2.95039-11.68459 c1.8542-1.7339,4.3558-2.6468,6.86931-3.0023c10.48-1.4828,24.4493,1.08549,32.004,8.9359 c0.0088,0.0092,0.01759,0.0182,0.02629,0.0274c8.0307,8.37608,3.51631,25.30391-7.49249,28.99809 c-4.8959,1.64279-10.2877-0.08719-14.8539-2.5025c-4.6165-2.44409-8.85411-5.60318-12.51541-9.32919 C161.25259,265.99521,158.4451,262.19699,157.4371,257.78299z"/><path d="M226.793,169.0517c2.41679,4.47011,3.4612,9.701,1.8576,14.4106c-1.3802,4.05391-4.63451,7.3602-8.554,9.2382 c-6.0891,2.9175-14.6812,2.9915-20.6562-0.45081c-10.3589-5.9679-21.4882-24.50859-15.8349-36.2979 c3.5914-7.48909,13.0159-7.44899,20.10651-5.41319c8.5224,2.4467,16.5076,8.87929,21.51489,15.98709 C225.7952,167.3322,226.3203,168.1774,226.793,169.0517z"/><path d="M191.55251,221.6713c-1.8372,3.93871-5.10971,7.22701-9.14911,8.6492 c-4.6927,1.65221-9.9342,0.66211-14.42909-1.70839c-0.87921-0.4635-1.7296-0.98001-2.54201-1.5397 c-7.15939-4.9335-13.6741-12.8517-16.20909-21.3483c-2.10901-7.0692-2.2467-16.49281,5.20479-20.1615 c11.7301-5.7751,30.38501,5.1617,36.45981,15.4583C194.3918,206.9599,194.40691,215.55209,191.55251,221.6713z"/></g></svg>